<svg width="16" height="16" viewBox="0 0 16 16" fill="none" xmlns="http://www.w3.org/2000/svg">
<path fill-rule="evenodd" clip-rule="evenodd" d="M10.6668 3.33333H5.3335C4.96531 3.33333 4.66683 3.63181 4.66683 4V6.66667C4.66683 8.50762 6.15921 10 8.00016 10C9.84111 10 11.3335 8.50762 11.3335 6.66667V4C11.3335 3.63181 11.035 3.33333 10.6668 3.33333ZM5.3335 2C4.22893 2 3.3335 2.89543 3.3335 4V6.66667C3.3335 9.244 5.42283 11.3333 8.00016 11.3333C10.5775 11.3333 12.6668 9.244 12.6668 6.66667V4C12.6668 2.89543 11.7714 2 10.6668 2H5.3335Z" fill="#FCFCFD"/>
<path fill-rule="evenodd" clip-rule="evenodd" d="M0.666504 5.3335C0.666504 4.22893 1.56193 3.3335 2.6665 3.3335H4.6665V8.66683H3.33317C1.86041 8.66683 0.666504 7.47292 0.666504 6.00016V5.3335ZM2.6665 4.66683H3.33317V7.3335C2.59679 7.3335 1.99984 6.73654 1.99984 6.00016V5.3335C1.99984 4.96531 2.29831 4.66683 2.6665 4.66683Z" fill="#FCFCFD"/>
<path fill-rule="evenodd" clip-rule="evenodd" d="M15.3332 5.3335C15.3332 4.22893 14.4377 3.3335 13.3332 3.3335H11.3332V8.66683H12.6665C14.1393 8.66683 15.3332 7.47292 15.3332 6.00016V5.3335ZM13.3332 4.66683H12.6665V7.3335C13.4029 7.3335 13.9998 6.73654 13.9998 6.00016V5.3335C13.9998 4.96531 13.7014 4.66683 13.3332 4.66683Z" fill="#FCFCFD"/>
<path d="M8.00016 10C7.63197 10 7.3335 10.2985 7.3335 10.6667V12.6667H6.00016C5.63197 12.6667 5.3335 12.9651 5.3335 13.3333C5.3335 13.7015 5.63197 14 6.00016 14H10.0002C10.3684 14 10.6668 13.7015 10.6668 13.3333C10.6668 12.9651 10.3684 12.6667 10.0002 12.6667H8.66683V10.6667C8.66683 10.2985 8.36835 10 8.00016 10Z" fill="#FCFCFD"/>
</svg>
