<svg width="17" height="16" viewBox="0 0 17 16" fill="none" xmlns="http://www.w3.org/2000/svg">
<path fill-rule="evenodd" clip-rule="evenodd" d="M11.0667 8.00016C11.0667 9.47292 9.87282 10.6668 8.40007 10.6668C6.92731 10.6668 5.7334 9.47292 5.7334 8.00016C5.7334 6.5274 6.92731 5.3335 8.40007 5.3335C9.87282 5.3335 11.0667 6.5274 11.0667 8.00016ZM9.7334 8.00016C9.7334 8.73654 9.13645 9.3335 8.40007 9.3335C7.66369 9.3335 7.06673 8.73654 7.06673 8.00016C7.06673 7.26378 7.66369 6.66683 8.40007 6.66683C9.13645 6.66683 9.7334 7.26378 9.7334 8.00016Z" fill="#FCFCFD"/>
<path fill-rule="evenodd" clip-rule="evenodd" d="M15.0667 8.00016C15.0667 11.6821 12.082 14.6668 8.40007 14.6668C4.71817 14.6668 1.7334 11.6821 1.7334 8.00016C1.7334 4.31826 4.71817 1.3335 8.40007 1.3335C12.082 1.3335 15.0667 4.31826 15.0667 8.00016ZM13.7334 8.00016C13.7334 10.9457 11.3456 13.3335 8.40007 13.3335C5.45455 13.3335 3.06673 10.9457 3.06673 8.00016C3.06673 5.05464 5.45455 2.66683 8.40007 2.66683C11.3456 2.66683 13.7334 5.05464 13.7334 8.00016Z" fill="#FCFCFD"/>
<path d="M4.43397 3.12253C4.5504 2.77324 4.92795 2.58446 5.27724 2.7009L7.27724 3.36756C7.62654 3.48399 7.81531 3.86154 7.69888 4.21084C7.58245 4.56013 7.2049 4.74891 6.85561 4.63247L4.85561 3.96581C4.50631 3.84938 4.31754 3.47183 4.43397 3.12253Z" fill="#FCFCFD"/>
<path d="M4.4701 7.03517C4.63476 6.70585 5.03521 6.57237 5.36453 6.73703L6.69787 7.4037C7.02718 7.56836 7.16067 7.96881 6.99601 8.29813C6.83135 8.62744 6.4309 8.76093 6.10158 8.59627L4.76825 7.9296C4.43893 7.76494 4.30545 7.36449 4.4701 7.03517Z" fill="#FCFCFD"/>
<path d="M9.53781 13.1381C9.79816 12.8777 9.79816 12.4556 9.53781 12.1953C9.27746 11.9349 8.85535 11.9349 8.595 12.1953L7.595 13.1953C7.33465 13.4556 7.33465 13.8777 7.595 14.1381C7.85535 14.3984 8.27746 14.3984 8.53781 14.1381L9.53781 13.1381Z" fill="#FCFCFD"/>
<path d="M9.595 9.19526C9.85535 8.93491 10.2775 8.93491 10.5378 9.19526L10.8711 9.52859C11.1315 9.78894 11.1315 10.2111 10.8711 10.4714C10.6108 10.7318 10.1887 10.7318 9.92834 10.4714L9.595 10.1381C9.33465 9.87772 9.33465 9.45561 9.595 9.19526Z" fill="#FCFCFD"/>
<path d="M5.66267 10.9648C5.82733 10.6355 5.69385 10.235 5.36453 10.0704C5.03521 9.90571 4.63476 10.0392 4.4701 10.3685L3.80344 11.7018C3.63878 12.0312 3.77226 12.4316 4.10158 12.5963C4.4309 12.7609 4.83135 12.6274 4.99601 12.2981L5.66267 10.9648Z" fill="#FCFCFD"/>
<path d="M14.996 7.70184C15.1607 8.03116 15.0272 8.43161 14.6979 8.59627L13.3645 9.26293C13.0352 9.42759 12.6348 9.29411 12.4701 8.96479C12.3054 8.63547 12.4389 8.23502 12.7682 8.07036L14.1016 7.4037C14.4309 7.23904 14.8313 7.37252 14.996 7.70184Z" fill="#FCFCFD"/>
<path d="M11.0322 5.54417C11.1486 5.19487 10.9599 4.81733 10.6106 4.7009C10.2613 4.58446 9.88373 4.77324 9.7673 5.12253L9.43397 6.12253C9.31754 6.47183 9.50631 6.84937 9.85561 6.96581C10.2049 7.08224 10.5824 6.89347 10.6989 6.54417L11.0322 5.54417Z" fill="#FCFCFD"/>
</svg>
