<svg width="16" height="16" viewBox="0 0 16 16" fill="none" xmlns="http://www.w3.org/2000/svg">
<path fill-rule="evenodd" clip-rule="evenodd" d="M13.3346 11.3333H2.66797C2.29978 11.3333 2.0013 11.6318 2.0013 12C2.0013 12.3682 2.29978 12.6667 2.66797 12.6667H13.3346C13.7028 12.6667 14.0013 12.3682 14.0013 12C14.0013 11.6318 13.7028 11.3333 13.3346 11.3333ZM2.66797 10C1.5634 10 0.667969 10.8954 0.667969 12C0.667969 13.1046 1.5634 14 2.66797 14H13.3346C14.4392 14 15.3346 13.1046 15.3346 12C15.3346 10.8954 14.4392 10 13.3346 10H2.66797Z" fill="#FCFCFD"/>
<path d="M8.66536 2.66667C8.66536 2.29848 8.36689 2 7.9987 2C7.63051 2 7.33203 2.29848 7.33203 2.66667V6.39052L6.4701 5.5286C6.20975 5.26825 5.78764 5.26825 5.52729 5.5286C5.26694 5.78894 5.26694 6.21106 5.52729 6.4714L7.52729 8.4714C7.78764 8.73175 8.20975 8.73175 8.4701 8.4714L10.4701 6.4714C10.7305 6.21106 10.7305 5.78894 10.4701 5.5286C10.2098 5.26825 9.78764 5.26825 9.52729 5.5286L8.66536 6.39052V2.66667Z" fill="#FCFCFD"/>
</svg>
