<svg width="16" height="16" viewBox="0 0 16 16" fill="none" xmlns="http://www.w3.org/2000/svg">
<path d="M2.66797 0.666667C2.66797 0.298477 2.96645 0 3.33464 0C3.70283 0 4.0013 0.298477 4.0013 0.666667V15.3333C4.0013 15.7015 3.70283 16 3.33464 16C2.96645 16 2.66797 15.7015 2.66797 15.3333V0.666667Z" fill="#FCFCFD"/>
<path fill-rule="evenodd" clip-rule="evenodd" d="M7.44844 9.3335H2.66797V1.3335H6.66797C7.53878 1.3335 8.27961 1.89003 8.55416 2.66683H11.8439C12.8351 2.66683 13.4798 3.70991 13.0365 4.59645L12.0013 6.66683L13.0365 8.73721C13.4798 9.62375 12.8351 10.6668 11.8439 10.6668H9.33463C8.46382 10.6668 7.723 10.1103 7.44844 9.3335ZM4.0013 2.66683H6.66797C7.03616 2.66683 7.33463 2.96531 7.33463 3.3335V8.00016H4.0013V2.66683ZM8.66797 8.66683C8.66797 9.03502 8.96644 9.3335 9.33463 9.3335H11.8439L10.5106 6.66683L11.8439 4.00016H8.66797V8.66683Z" fill="#FCFCFD"/>
</svg>
