<svg width="16" height="16" viewBox="0 0 16 16" fill="none" xmlns="http://www.w3.org/2000/svg">
<path d="M2.84442 9.95508C2.84223 10.0241 2.84538 10.0943 2.85424 10.1652L3.13972 12.449C3.25046 13.335 4.00361 13.9998 4.89647 13.9998C5.87425 13.9998 6.6669 13.2072 6.6669 12.2294V10.1883C6.23084 10.0823 5.78416 10.0204 5.33357 10.0042V12.2294C5.33357 12.4708 5.13788 12.6665 4.89647 12.6665C4.67604 12.6665 4.49009 12.5024 4.46275 12.2836L4.17728 9.99984C5.82856 9.99984 4.16443 9.99983 3.3335 9.99983C3.16644 9.99983 3.00297 9.98447 2.84442 9.95508Z" fill="#FCFCFD"/>
<path fill-rule="evenodd" clip-rule="evenodd" d="M5.09418 6.00024H3.33464C2.59826 6.00024 2.0013 6.59719 2.0013 7.33357C2.0013 8.06995 2.59826 8.6669 3.33464 8.6669H5.09418C6.33614 8.6669 7.56105 8.95606 8.67189 9.51149L12.3698 11.3605C12.8131 11.5821 13.3346 11.2598 13.3346 10.7642V3.90297C13.3346 3.40738 12.8131 3.08505 12.3698 3.30669L8.67189 5.15565C7.56105 5.71108 6.33614 6.00024 5.09418 6.00024ZM3.33464 4.6669C1.86188 4.6669 0.667969 5.86081 0.667969 7.33357C0.667969 8.80633 1.86188 10.0002 3.33464 10.0002H5.09418C6.12915 10.0002 7.1499 10.2412 8.07561 10.7041L11.7735 12.553C13.1033 13.2179 14.668 12.2509 14.668 10.7642V3.90297C14.668 2.41621 13.1033 1.44922 11.7735 2.11412L8.07561 3.96308C7.1499 4.42594 6.12915 4.6669 5.09418 4.6669H3.33464Z" fill="#FCFCFD"/>
<path d="M7.33333 10.3876C6.9012 10.2334 6.45437 10.1243 6 10.0619V4.60455C6.45437 4.54215 6.9012 4.433 7.33333 4.27881V10.3876Z" fill="#FCFCFD"/>
<path d="M14.668 8.6095C15.0564 8.47222 15.3346 8.10181 15.3346 7.66641V6.99974C15.3346 6.56433 15.0564 6.19392 14.668 6.05664V8.6095Z" fill="#FCFCFD"/>
</svg>
