<svg width="25" height="28" viewBox="0 0 25 28" fill="none" xmlns="http://www.w3.org/2000/svg">
<path d="M3.50808 22.0207L4.00809 21.1547L3.50809 22.0207L9.90039 25.7113C11.4474 26.6045 13.3534 26.6045 14.9004 25.7113L21.2927 22.0207C22.8397 21.1276 23.7927 19.4769 23.7927 17.6906V10.3094C23.7927 8.52307 22.8397 6.87244 21.2927 5.97927L14.9004 2.28868C13.3534 1.39551 11.4474 1.39551 9.90039 2.28868L3.50809 5.97927C1.96108 6.87244 1.00809 8.52307 1.00809 10.3094V17.6906C1.00809 19.4769 1.96108 21.1276 3.50808 22.0207Z" fill="#45B36B" stroke="#FCFCFD" stroke-width="2"/>
<path d="M11.5028 9.56319C11.6074 9.38022 11.4526 9.15792 11.2447 9.19256L10.273 9.35451C10.1244 9.37927 10.0313 9.52873 10.0746 9.67295L10.3773 10.6818C10.4404 10.8923 10.7248 10.9248 10.8338 10.734L11.5028 9.56319Z" fill="#FCFCFD"/>
<path d="M9.21703 10.296C9.16129 10.1102 8.92527 10.0567 8.79868 10.2037C8.40612 10.6594 8.03536 11.1383 7.65141 11.599C7.63005 11.6246 7.60966 11.6508 7.59026 11.6775C7.48614 11.8206 7.60443 12.0002 7.78144 12.0002H9.39229C9.55976 12.0002 9.67987 11.8388 9.63175 11.6784L9.21703 10.296Z" fill="#FCFCFD"/>
<path d="M7.70858 13C7.54041 13 7.42101 13.1639 7.50522 13.3095C7.53224 13.3562 7.56199 13.4018 7.59449 13.4461L11.1911 18.3506C11.2512 18.4326 11.3176 18.5064 11.389 18.5719C11.5443 18.7145 11.739 18.5502 11.6769 18.3487L10.083 13.1764C10.0507 13.0715 9.9538 13 9.84409 13H7.70858Z" fill="#FCFCFD"/>
<path d="M13.1242 18.3488C13.0621 18.5503 13.2567 18.7147 13.412 18.5721C13.4835 18.5065 13.5499 18.4327 13.6101 18.3506L17.2067 13.4461C17.2392 13.4018 17.269 13.3562 17.296 13.3095C17.3802 13.1639 17.2608 13 17.0926 13H14.9571C14.8473 13 14.7504 13.0715 14.7181 13.1764L13.1242 18.3488Z" fill="#FCFCFD"/>
<path d="M17.0193 11.9998C17.1963 11.9998 17.3146 11.8202 17.2105 11.6771C17.1911 11.6504 17.1707 11.6242 17.1493 11.5986C16.7654 11.1378 16.3946 10.659 16.002 10.2032C15.8754 10.0562 15.6394 10.1097 15.5837 10.2955L15.1689 11.678C15.1208 11.8384 15.2409 11.9998 15.4084 11.9998H17.0193Z" fill="#FCFCFD"/>
<path d="M14.5281 9.35453C14.6766 9.37928 14.7697 9.52874 14.7265 9.67296L14.4238 10.6819C14.3607 10.8924 14.0763 10.9249 13.9673 10.7341L13.2982 9.5632C13.1936 9.38022 13.3485 9.15792 13.5563 9.19256L14.5281 9.35453Z" fill="#FCFCFD"/>
<path d="M12.4003 10.0078L13.325 11.626C13.4203 11.7927 13.2999 12 13.108 12H11.6927C11.5008 12 11.3805 11.7927 11.4757 11.626L12.4003 10.0078Z" fill="#FCFCFD"/>
<path d="M12.6392 16.5232C12.5668 16.7586 12.2337 16.7586 12.1613 16.5232L11.1768 13.3235C11.1273 13.1628 11.2475 13 11.4157 13H13.3848C13.553 13 13.6732 13.1628 13.6237 13.3235L12.6392 16.5232Z" fill="#FCFCFD"/>
</svg>
