<svg width="16" height="16" viewBox="0 0 16 16" fill="none" xmlns="http://www.w3.org/2000/svg">
<path fill-rule="evenodd" clip-rule="evenodd" d="M12.668 3.33333H3.33464C2.59826 3.33333 2.0013 3.93029 2.0013 4.66667V11.3333C2.0013 12.0697 2.59826 12.6667 3.33464 12.6667H12.668C13.4043 12.6667 14.0013 12.0697 14.0013 11.3333V4.66667C14.0013 3.93029 13.4043 3.33333 12.668 3.33333ZM3.33464 2C1.86188 2 0.667969 3.19391 0.667969 4.66667V11.3333C0.667969 12.8061 1.86188 14 3.33464 14H12.668C14.1407 14 15.3346 12.8061 15.3346 11.3333V4.66667C15.3346 3.19391 14.1407 2 12.668 2H3.33464Z" fill="#FCFCFD"/>
<path fill-rule="evenodd" clip-rule="evenodd" d="M8.66797 7.99984C8.66797 6.15889 10.1604 4.6665 12.0013 4.6665H14.668C15.0362 4.6665 15.3346 4.96498 15.3346 5.33317C15.3346 5.70136 15.0362 5.99984 14.668 5.99984H12.0013C10.8967 5.99984 10.0013 6.89527 10.0013 7.99984C10.0013 9.10441 10.8967 9.99984 12.0013 9.99984H14.668C15.0362 9.99984 15.3346 10.2983 15.3346 10.6665C15.3346 11.0347 15.0362 11.3332 14.668 11.3332H12.0013C10.1604 11.3332 8.66797 9.84079 8.66797 7.99984Z" fill="#FCFCFD"/>
<path d="M12.6654 8.00016C12.6654 8.36835 12.3669 8.66683 11.9987 8.66683C11.6305 8.66683 11.332 8.36835 11.332 8.00016C11.332 7.63197 11.6305 7.3335 11.9987 7.3335C12.3669 7.3335 12.6654 7.63197 12.6654 8.00016Z" fill="#777E91"/>
</svg>
