<?xml version="1.0" encoding="UTF-8"?>
<svg width="681px" height="189px" viewBox="0 0 681 189" version="1.1" xmlns="http://www.w3.org/2000/svg" xmlns:xlink="http://www.w3.org/1999/xlink">
    <!-- Generator: Sketch 45.2 (43514) - http://www.bohemiancoding.com/sketch -->
    <title>cosmic</title>
    <desc>Created with Sketch.</desc>
    <defs></defs>
    <g id="Page-1" stroke="none" stroke-width="1" fill="none" fill-rule="evenodd">
        <g id="cosmic" fill-rule="nonzero">
            <g id="logo" fill="#29ABE2">
                <path d="M76.3262984,64.2494459 C81.1542915,60.164221 85.6109004,56.0789961 90.4388935,52.3651553 C86.7250527,49.7654668 83.3825959,47.5371623 80.0401392,45.3088578 C75.9549143,48.6513145 71.8696894,52.3651553 67.7844646,56.0789961 C71.8696894,57.5645325 74.8407621,60.5356051 76.3262984,64.2494459 Z" id="Shape"></path>
                <ellipse id="Oval" transform="translate(64.441789, 67.591755) rotate(0.151110) translate(-64.441789, -67.591755) " cx="64.4417887" cy="67.5917554" rx="15.969571" ry="15.2268003"></ellipse>
                <path d="M78.925987,153.010241 C57.0143262,164.894532 38.0737381,167.865604 29.5319043,159.695155 C17.6476137,148.182248 28.417752,118.100138 54.4146377,87.646643 C50.3294128,86.5324907 46.9869561,83.5614181 45.1300357,79.8475773 C7.24885946,122.185362 -9.83480824,164.894532 6.87747537,180.864047 C20.6186863,194.233874 53.6718695,185.320656 90.0675094,161.552075 C86.3536686,158.952386 82.6398278,155.981314 78.925987,153.010241 Z" id="Shape"></path>
                <path d="M104.922873,51.6223872 C106.037025,47.5371623 109.008097,44.1947056 112.721938,42.3377852 C68.8986168,6.31352937 24.3325272,-9.65598609 7.62024354,6.31352937 C-6.12096744,19.6833563 2.79225049,51.2510031 27.6749839,86.1611066 C30.6460565,82.4472658 33.6171292,79.1048091 36.5882018,75.3909683 C24.3325272,54.2220757 20.9900704,36.0242558 29.5319043,27.4824219 C41.7875789,15.9695155 72.9838417,26.7396538 104.922873,51.6223872 Z" id="Shape"></path>
                <path d="M134.633599,62.0211414 C133.148063,65.7349822 129.805606,68.7060549 126.091765,70.1915912 C131.662526,75.7623524 136.861904,80.9617295 141.318512,86.5324907 C143.918201,83.190034 146.51789,79.8475773 148.37481,76.5051206 C144.289585,71.6771275 139.461592,66.8491345 134.633599,62.0211414 Z" id="Shape"></path>
                <path d="M125.720381,76.8765046 C134.633599,76.8765046 141.689897,70.1915912 141.689897,61.6497573 C141.689897,53.1079235 134.633599,46.42301 125.720381,46.42301 C116.807163,46.42301 109.750866,53.1079235 109.750866,61.6497573 C109.750866,69.8202071 116.807163,76.8765046 125.720381,76.8765046 Z" id="Shape"></path>
                <path d="M166.944014,27.853806 C178.828305,39.3667125 168.058166,69.448823 142.061281,99.9023176 C146.146506,101.01647 149.488962,103.987543 151.345883,107.701383 C188.855675,65.3635981 205.939342,22.2830448 189.227059,6.31352937 C175.485848,-6.68491345 142.432665,2.22830448 106.408409,25.9968856 C110.12225,28.5965742 113.836091,31.5676468 117.549931,34.5387195 C139.461592,22.6544289 158.40218,19.6833563 166.944014,27.853806 Z" id="Shape"></path>
                <path d="M122.749308,120.699826 C117.178547,125.899203 111.236402,130.727196 105.665641,135.183805 C109.379482,137.783494 112.721938,140.011798 116.435779,142.240103 C121.635156,138.154878 126.463149,133.698269 131.662526,128.870276 C127.577301,127.38474 124.606229,124.413667 122.749308,120.699826 Z" id="Shape"></path>
                <ellipse id="Oval" transform="translate(131.846915, 120.150782) rotate(-179.842174) translate(-131.846915, -120.150782) " cx="131.846915" cy="120.150782" rx="15.969576" ry="15.2268051"></ellipse>
                <path d="M70.3841531,117.728753 C64.8133919,112.157992 59.6140148,106.958615 55.1574058,101.387854 C52.5577173,104.730311 49.9580287,108.072767 48.1011083,111.415224 C52.5577173,116.243217 57.0143262,121.07121 61.8423193,125.899203 C63.3278556,122.185362 66.2989282,119.21429 70.3841531,117.728753 Z" id="Shape"></path>
                <path d="M168.800934,101.759238 C165.829862,105.473079 162.858789,108.815536 159.887716,112.529376 C172.143391,133.698269 175.485848,151.524705 166.57263,160.066539 C154.316955,171.579445 123.120693,160.809307 91.1816616,136.297958 C90.0675094,140.383182 87.0964367,143.725639 83.3825959,145.58256 C127.577301,181.606815 172.143391,197.947715 188.855675,181.978199 C202.596886,168.236988 193.683668,136.297958 168.800934,101.759238 Z" id="Shape"></path>
                <ellipse id="Oval" transform="translate(70.824878, 126.057320) rotate(-89.849725) translate(-70.824878, -126.057320) " cx="70.824878" cy="126.05732" rx="15.2267997" ry="15.9695704"></ellipse>
            </g>
            <path d="M278.475,134.32 C291.125,134.32 299.485,129.92 307.075,122.99 C307.845,122.33 308.505,121.23 308.505,119.91 C308.505,117.71 306.525,115.73 304.325,115.73 C303.225,115.73 302.235,116.28 301.575,116.94 C294.975,122.99 288.265,126.29 278.695,126.29 C261.755,126.29 248.885,112.32 248.885,94.5 C248.885,76.57 261.645,62.71 278.695,62.71 C288.155,62.71 294.865,66.23 300.805,71.51 C301.465,71.95 302.455,72.5 303.665,72.5 C305.975,72.5 308.065,70.52 308.065,68.21 C308.065,66.67 307.185,65.46 306.305,64.69 C299.155,58.75 291.235,54.68 278.805,54.68 C256.145,54.68 239.865,72.72 239.865,94.5 C239.865,116.83 256.255,134.32 278.475,134.32 Z M358.005,134.32 C334.575,134.32 318.845,115.95 318.845,94.72 L318.845,94.5 C318.845,73.27 334.795,54.68 358.225,54.68 C381.655,54.68 397.385,73.05 397.385,94.28 L397.385,94.5 C397.385,115.73 381.435,134.32 358.005,134.32 Z M358.225,126.29 C375.825,126.29 388.365,112.21 388.365,94.72 L388.365,94.5 C388.365,77.01 375.605,62.71 358.005,62.71 C340.405,62.71 327.865,76.79 327.865,94.28 L327.865,94.5 C327.865,111.99 340.625,126.29 358.225,126.29 Z M441.605,134.1 C456.895,134.1 467.895,125.52 467.895,112.32 L467.895,112.1 C467.895,100.33 459.975,94.06 442.815,90.32 C425.875,86.69 421.915,82.62 421.915,75.36 L421.915,75.14 C421.915,68.21 428.295,62.71 438.305,62.71 C445.455,62.71 451.725,64.69 458.215,69.42 C458.985,69.97 459.755,70.19 460.745,70.19 C463.055,70.19 464.925,68.32 464.925,66.01 C464.925,64.36 463.935,63.15 463.055,62.49 C456.015,57.43 448.645,54.9 438.525,54.9 C423.895,54.9 413.225,63.81 413.225,75.91 L413.225,76.13 C413.225,88.78 421.365,94.5 439.075,98.35 C455.245,101.76 459.095,105.83 459.095,112.98 L459.095,113.2 C459.095,120.79 452.275,126.29 441.935,126.29 C432.145,126.29 424.885,123.32 417.625,117.16 C417.075,116.61 416.085,116.17 414.985,116.17 C412.675,116.17 410.805,118.04 410.805,120.46 C410.805,121.89 411.465,123.1 412.455,123.76 C421.035,130.58 430.385,134.1 441.605,134.1 Z M485.605,129.26 C485.605,131.68 487.475,133.55 489.785,133.55 C492.205,133.55 494.075,131.68 494.075,129.26 L494.075,71.84 L518.605,107.92 C519.595,109.35 520.805,110.12 522.345,110.12 C523.885,110.12 524.985,109.35 525.975,107.92 L550.615,71.73 L550.615,129.15 C550.615,131.46 552.595,133.55 555.015,133.55 C557.325,133.55 559.305,131.57 559.305,129.15 L559.305,59.96 C559.305,57.65 557.325,55.67 555.015,55.67 L554.025,55.67 C552.265,55.67 550.835,56.55 549.955,57.98 L522.455,99.34 L494.955,57.98 C494.075,56.66 492.755,55.67 490.885,55.67 L489.895,55.67 C487.585,55.67 485.605,57.65 485.605,59.96 L485.605,129.26 Z M581.855,129.15 C581.855,131.57 583.835,133.55 586.145,133.55 C588.565,133.55 590.545,131.57 590.545,129.15 L590.545,59.85 C590.545,57.43 588.565,55.45 586.145,55.45 C583.835,55.45 581.855,57.43 581.855,59.85 L581.855,129.15 Z M648.295,134.32 C660.945,134.32 669.305,129.92 676.895,122.99 C677.665,122.33 678.325,121.23 678.325,119.91 C678.325,117.71 676.345,115.73 674.145,115.73 C673.045,115.73 672.055,116.28 671.395,116.94 C664.795,122.99 658.085,126.29 648.515,126.29 C631.575,126.29 618.705,112.32 618.705,94.5 L618.705,94.28 C618.705,76.57 631.465,62.71 648.515,62.71 C657.975,62.71 664.685,66.23 670.625,71.51 C671.285,71.95 672.275,72.5 673.485,72.5 C675.795,72.5 677.885,70.52 677.885,68.21 C677.885,66.67 677.005,65.46 676.125,64.69 C668.975,58.75 661.055,54.68 648.625,54.68 C625.965,54.68 609.685,72.72 609.685,94.5 L609.685,94.72 C609.685,116.83 626.075,134.32 648.295,134.32 Z" id="COSMIC-JS" stroke="#FFFFFF" stroke-width="4" fill="#FFFFFF"></path>
        </g>
    </g>
</svg>