<svg width="137" height="29" viewBox="0 0 137 29" fill="none" xmlns="http://www.w3.org/2000/svg">
    <path d="M11.2132 9.87746C11.8885 9.27244 12.5119 8.66742 13.1872 8.11739C12.6677 7.73238 12.2002 7.40236 11.7327 7.07235C11.1613 7.56737 10.5899 8.11739 10.0184 8.66742C10.5899 8.88742 11.0054 9.32744 11.2132 9.87746Z" fill="#3DBFF5"/>
    <path d="M9.5539 12.6887C10.8039 12.6921 11.8199 11.6483 11.8232 10.3573C11.8265 9.06632 10.8158 8.01697 9.56577 8.01354C8.31574 8.01012 7.29974 9.05392 7.29646 10.3449C7.29318 11.6359 8.30387 12.6853 9.5539 12.6887Z" fill="#3DBFF5"/>
    <path d="M11.5548 23.3775C8.34447 25.1906 5.56942 25.6439 4.31793 24.3974C2.57672 22.6409 4.15469 18.0512 7.96358 13.4049C7.36504 13.2349 6.87533 12.7816 6.60326 12.215C1.05317 18.6745 -1.44982 25.1906 0.998754 27.6271C3.01202 29.667 7.85475 28.3071 13.1872 24.6807C12.6431 24.2841 12.0989 23.8308 11.5548 23.3775Z" fill="#3DBFF5"/>
    <path d="M15.2166 7.89501C15.3794 7.27344 15.8134 6.76488 16.3559 6.48234C9.95395 1.00119 3.44346 -1.4286 1.00203 1.00119C-1.00537 3.03543 0.296723 7.8385 3.93175 13.1501C4.36578 12.5851 4.79981 12.0765 5.23384 11.5114C3.44346 8.29056 2.95517 5.52173 4.20302 4.22207C5.9934 2.47037 10.5507 4.10906 15.2166 7.89501Z" fill="#3DBFF5"/>
    <path d="M19.834 9.40992C19.6228 9.97661 19.1474 10.43 18.6193 10.6566C19.4115 11.5067 20.1509 12.3 20.7846 13.1501C21.1543 12.6401 21.524 12.13 21.7881 11.62C21.2071 10.8833 20.5206 10.1466 19.834 9.40992Z" fill="#3DBFF5"/>
    <path d="M18.1666 11.7475C19.4299 11.7475 20.43 10.7213 20.43 9.40995C20.43 8.09861 19.4299 7.07235 18.1666 7.07235C16.9033 7.07235 15.9032 8.09861 15.9032 9.40995C15.9032 10.6643 16.9033 11.7475 18.1666 11.7475Z" fill="#3DBFF5"/>
    <path d="M24.3561 4.25396C26.1044 6.00853 24.52 10.593 20.6956 15.2342C21.2965 15.404 21.7883 15.8568 22.0614 16.4227C27.5796 9.97046 30.0928 3.40498 27.6342 0.97122C25.6127 -1.00974 20.7502 0.348632 15.4506 3.97097C15.9969 4.36716 16.5433 4.81995 17.0896 5.27274C20.3131 3.46158 23.0995 3.00878 24.3561 4.25396Z" fill="#3DBFF5"/>
    <path d="M17.8304 18.2929C17.0544 19.0828 16.2266 19.8163 15.4506 20.4934C15.9679 20.8884 16.4335 21.2269 16.9509 21.5655C17.6752 20.9448 18.3477 20.2677 19.072 19.5342C18.5029 19.3085 18.089 18.8571 17.8304 18.2929Z" fill="#3DBFF5"/>
    <path d="M19.5371 15.9487C18.287 15.9452 17.2709 16.9888 17.2675 18.2798C17.2641 19.5709 18.2746 20.6203 19.5247 20.6239C20.7747 20.6275 21.7908 19.5838 21.7942 18.2928C21.7977 17.0018 20.7871 15.9523 19.5371 15.9487Z" fill="#3DBFF5"/>
    <path d="M10.0185 17.9811C9.22627 17.1311 8.48689 16.3377 7.85315 15.4877C7.48346 15.9977 7.11377 16.5077 6.84971 17.0178C7.48346 17.7545 8.11721 18.4912 8.80377 19.2279C9.01502 18.6612 9.43752 18.2078 10.0185 17.9811Z" fill="#3DBFF5"/>
    <path d="M24.7188 15.4877C24.2862 16.0508 23.8537 16.5575 23.4211 17.1205C25.2055 20.3299 25.6922 23.0326 24.3944 24.3276C22.61 26.073 18.0677 24.4402 13.4174 20.7241C13.2551 21.3434 12.8225 21.8502 12.2818 22.1317C18.7166 27.5932 25.2055 30.0707 27.6388 27.6496C29.6396 25.5663 28.3418 20.7241 24.7188 15.4877Z" fill="#3DBFF5"/>
    <path d="M12.7404 19.2402C12.7437 17.9492 11.733 16.8998 10.4829 16.8964C9.23292 16.893 8.21693 17.9368 8.21367 19.2278C8.21041 20.5189 9.22111 21.5682 10.4711 21.5716C11.7212 21.575 12.7372 20.5312 12.7404 19.2402Z" fill="#3DBFF5"/>
    <path d="M44.387 24.1577C49.8055 24.1577 53.5415 21.3059 53.5415 16.7144V16.3436H50.1478V16.7144C50.1478 19.6518 48.294 21.1918 44.4155 21.1918C39.9381 21.1918 37.7707 19.0814 37.7707 14.3188C37.7707 9.55618 39.9381 7.41728 44.4155 7.41728C48.294 7.41728 50.1478 8.98581 50.1478 11.8947V12.294H53.5415V11.8947C53.5415 7.33172 49.777 4.47986 44.387 4.47986C38.4551 4.47986 34.5195 8.35839 34.5195 14.3188C34.5195 20.2792 38.4551 24.1577 44.387 24.1577Z" fill="white"/>
    <path d="M63.0542 24.1577C67.7883 24.1577 70.9539 21.1633 70.9539 16.7999C70.9539 12.3795 67.7883 9.41358 63.0542 9.41358C58.3487 9.41358 55.1831 12.3795 55.1831 16.7999C55.1831 21.1633 58.3487 24.1577 63.0542 24.1577ZM63.0542 21.4199C59.632 21.4199 58.2061 19.7944 58.2061 16.7999C58.2061 13.7769 59.632 12.1229 63.0542 12.1229C66.505 12.1229 67.9309 13.7769 67.9309 16.7999C67.9309 19.7944 66.505 21.4199 63.0542 21.4199Z" fill="white"/>
    <path d="M79.8909 24.1577C83.8835 24.1577 86.5073 22.5892 86.5073 19.937C86.5073 17.5984 84.9673 16.4577 81.6021 16.0299L78.3224 15.5736C76.1835 15.2884 75.6131 14.8892 75.6131 13.7769C75.6131 12.4366 76.5257 11.8662 79.1209 11.8662C82.258 11.8662 83.1135 12.7503 83.1135 14.4329V14.604H86.165V14.5184C86.165 11.1532 83.5413 9.41358 79.2065 9.41358C74.8431 9.41358 72.5902 11.1817 72.5902 13.6629C72.5902 16.0299 74.2157 17.1707 76.8965 17.5129L80.775 18.0262C82.7998 18.3114 83.4843 18.6821 83.4843 19.8514C83.4843 21.1062 82.6572 21.6766 79.8909 21.6766C76.925 21.6766 75.8128 21.0777 75.8128 19.224V18.9959H72.7327V19.0814C72.7327 22.3611 75.3279 24.1577 79.8909 24.1577Z" fill="white"/>
    <path d="M91.8095 23.8725V16.857C91.8095 13.7199 92.8647 12.1799 95.9162 12.1799C98.654 12.1799 99.7377 13.3777 99.7377 16.1725V23.8725H102.789V16.857C102.789 13.7199 103.873 12.1799 106.896 12.1799C109.634 12.1799 110.746 13.3777 110.746 16.1725V23.8725H113.797V15.3455C113.797 11.9232 111.944 9.41358 108.265 9.41358C104.671 9.41358 103.074 11.6666 102.704 14.0906H102.533C102.133 11.3814 100.394 9.41358 97.171 9.41358C93.6347 9.41358 92.0947 11.6095 91.7239 13.9766H91.5528V9.69877H88.7295V23.8725H91.8095Z" fill="white"/>
    <path d="M119.632 8.04469V4.76504H116.552V8.04469H119.632ZM119.632 23.8725V9.69877H116.552V23.8725H119.632Z" fill="white"/>
    <path d="M129.642 24.1577C133.891 24.1577 137 21.7622 137 18.2258V17.9121H133.948V18.1118C133.948 20.3077 132.351 21.3914 129.585 21.3914C126.391 21.3914 124.965 19.8514 124.965 16.7999C124.965 13.6914 126.391 12.1799 129.585 12.1799C132.351 12.1799 133.948 13.2636 133.948 15.4595V15.6307H137V15.3455C137 11.8092 133.891 9.41358 129.642 9.41358C124.965 9.41358 121.914 12.3795 121.914 16.7999C121.914 21.1633 124.965 24.1577 129.642 24.1577Z" fill="white"/>
</svg>
