<?xml version="1.0" standalone="no"?>
<!DOCTYPE svg PUBLIC "-//W3C//DTD SVG 20010904//EN"
 "http://www.w3.org/TR/2001/REC-SVG-20010904/DTD/svg10.dtd">
<svg version="1.0" xmlns="http://www.w3.org/2000/svg"
 width="512.000000pt" height="512.000000pt" viewBox="0 0 512.000000 512.000000"
 preserveAspectRatio="xMidYMid meet">
<metadata>
Created by potrace 1.14, written by Peter Selinger 2001-2017
</metadata>
<g transform="translate(0.000000,512.000000) scale(0.100000,-0.100000)"
fill="#000000" stroke="none">
<path d="M2376 4350 c-86 -149 -165 -285 -175 -303 -30 -53 -443 -764 -590
-1015 -75 -128 -141 -243 -148 -254 -15 -28 -31 -37 -55 -30 -15 3 -16 7 -7
13 8 5 17 3 21 -4 6 -9 8 -9 8 1 0 7 4 10 10 7 6 -3 7 1 3 10 -4 12 -8 13 -13
5 -6 -9 -9 -9 -13 1 -4 10 -6 10 -6 2 -1 -7 -5 -13 -10 -13 -5 0 -8 8 -6 18 1
9 0 11 -2 5 -5 -14 -24 -18 -22 -5 4 24 -3 33 -21 27 -14 -4 -20 -2 -20 9 0 8
-4 18 -10 21 -6 4 -7 -1 -3 -12 6 -16 5 -16 -10 -4 -9 7 -15 17 -12 21 2 4 -7
5 -21 2 -24 -4 -26 -2 -19 19 3 13 3 20 -2 14 -14 -17 -36 -17 -29 0 3 9 2 14
-3 10 -5 -3 -11 1 -14 7 -3 10 -8 9 -22 -2 -17 -14 -18 -13 -12 2 9 25 -7 30
-39 13 -21 -11 -24 -15 -11 -16 9 -1 23 -2 30 -3 6 0 12 -8 12 -16 0 -8 9 -14
18 -13 13 1 17 -4 13 -15 -5 -15 -4 -15 7 0 14 18 28 15 23 -5 -2 -7 -1 -9 1
-4 8 13 23 7 17 -7 -3 -8 -1 -17 5 -21 7 -4 8 0 4 11 -6 15 -4 15 20 -1 31
-20 34 -27 10 -19 -13 4 -13 2 2 -6 11 -7 26 -20 32 -28 9 -11 13 -12 13 -3 0
7 5 9 10 6 6 -4 7 -11 4 -17 -4 -6 -2 -8 4 -5 14 9 43 -3 36 -14 -3 -5 3 -6
12 -2 11 4 15 3 10 -5 -3 -6 -1 -14 5 -18 8 -4 9 -3 5 4 -4 7 -2 12 3 12 6 0
11 -2 11 -4 0 -9 -151 -271 -737 -1281 -427 -734 -416 -715 -403 -741 14 -25
43 -29 199 -24 33 1 51 -2 47 -9 -4 -5 -2 -13 4 -16 6 -4 9 -1 8 7 -4 18 88
24 110 6 10 -8 13 -9 9 -1 -9 14 670 13 692 -1 10 -6 12 -6 7 2 -4 7 -3 12 3
12 5 0 12 -6 14 -12 4 -10 6 -10 6 0 1 6 6 12 11 12 8 0 8 -6 1 -17 -5 -10
-17 -18 -27 -18 -9 0 -18 -6 -20 -13 -1 -7 0 -8 3 -2 8 16 23 12 17 -5 -10
-26 3 -16 25 17 l20 33 270 0 c148 0 267 -3 264 -7 -2 -5 1 -8 6 -8 6 0 11 4
11 8 0 5 15 8 34 8 19 0 32 -4 30 -8 -3 -5 0 -8 5 -8 6 0 11 4 11 8 0 5 15 8
34 8 19 0 32 -4 30 -8 -3 -5 0 -8 5 -8 6 0 11 4 11 8 0 4 33 8 74 7 41 0 72
-3 69 -7 -2 -5 1 -8 6 -8 6 0 11 4 11 8 0 4 33 8 74 7 41 0 72 -3 69 -7 -2 -5
1 -8 6 -8 6 0 11 4 11 8 0 5 15 8 34 8 19 0 32 -4 30 -8 -3 -5 0 -8 5 -8 6 0
11 4 11 8 0 4 108 7 240 7 202 0 241 -2 245 -15 4 -8 3 -11 -1 -7 -4 4 -13 2
-20 -4 -11 -9 -15 -7 -20 6 -5 13 -9 14 -15 3 -7 -10 -9 -10 -9 1 0 11 -4 9
-14 -5 -14 -18 -15 -18 -22 -1 -5 15 -9 16 -15 5 -7 -10 -9 -10 -9 1 0 11 -4
9 -14 -5 -14 -18 -15 -18 -22 -1 -5 15 -9 16 -15 5 -7 -10 -9 -10 -9 2 -1 9
-6 6 -14 -9 l-14 -24 -6 21 c-10 30 -29 16 -21 -15 4 -18 2 -23 -6 -17 -7 4
-9 3 -6 -3 4 -6 0 -14 -9 -17 -25 -9 -26 -8 -8 19 16 24 11 51 -7 40 -5 -4 -9
-1 -9 5 0 6 -4 8 -10 5 -5 -3 -10 -11 -10 -16 0 -6 5 -7 10 -4 6 3 10 2 10 -3
0 -6 -7 -13 -16 -16 -22 -9 -24 -8 -18 8 3 8 0 18 -8 22 -17 11 -48 13 -42 3
2 -4 -5 -7 -16 -6 -11 1 -20 6 -20 12 0 5 -7 2 -14 -8 -9 -12 -16 -14 -21 -8
-8 14 -56 6 -67 -11 -4 -7 -8 -10 -9 -5 -1 4 -3 12 -4 17 -1 6 -3 13 -4 16 0
4 -8 1 -16 -6 -8 -7 -15 -9 -15 -5 0 4 -12 0 -26 -9 -21 -15 -25 -15 -22 -2 2
8 -1 14 -7 13 -5 -1 -9 -6 -7 -12 1 -5 -3 -3 -10 6 -11 13 -16 14 -25 3 -10
-10 -10 -14 0 -18 7 -3 3 -5 -8 -3 -11 1 -20 8 -20 15 0 10 -7 15 -17 11 -2 0
-12 -2 -22 -4 -10 -2 -23 -10 -27 -17 -5 -7 -9 -10 -10 -5 -1 4 -3 12 -4 17
-1 6 -3 13 -4 16 0 4 -8 1 -16 -6 -12 -10 -15 -10 -15 1 0 9 -3 10 -8 4 -4 -5
-16 -17 -26 -25 -18 -14 -19 -13 -14 2 9 21 -2 31 -19 17 -7 -6 -13 -8 -13 -4
0 4 -12 -1 -27 -10 -23 -15 -25 -15 -20 -2 7 19 -8 33 -18 17 -4 -6 -11 -8
-16 -5 -5 3 -6 -1 -3 -9 3 -8 -3 -19 -15 -25 -27 -15 -29 -14 -27 12 3 31 -4
40 -20 26 -8 -6 -14 -8 -14 -4 0 4 -11 0 -25 -9 -31 -20 -41 -21 -25 -1 7 8
11 15 9 16 -33 6 -45 7 -53 1 -18 -11 -36 -11 -36 0 0 6 -6 6 -15 -2 -8 -7
-13 -16 -10 -20 3 -4 -2 -11 -11 -14 -25 -10 -26 -8 -7 22 l18 27 -25 -16
c-26 -17 -55 -15 -44 3 4 5 -5 2 -20 -7 -22 -15 -27 -15 -32 -2 -4 11 -19 14
-54 13 -34 -1 -46 -4 -39 -12 5 -6 6 -14 2 -17 -9 -10 -25 -9 -19 1 2 4 0 14
-6 22 -8 12 -9 12 -4 -2 3 -10 3 -18 -1 -18 -3 0 -12 8 -20 18 -14 16 -14 16
-9 0 3 -10 1 -18 -4 -18 -5 0 -14 8 -19 18 -9 15 -12 15 -21 2 -5 -8 -7 -22
-4 -30 4 -8 7 -21 7 -27 0 -17 5 -16 25 4 16 16 16 16 -1 10 -13 -5 -17 -3
-15 5 4 11 19 13 59 9 6 -1 24 -15 40 -32 19 -20 27 -25 23 -13 -6 16 -3 15
16 -4 12 -13 24 -21 27 -18 3 3 -5 15 -18 27 -21 18 -21 20 -4 14 16 -5 17 -4
8 6 -10 10 -15 9 -28 -1 -8 -7 -15 -8 -15 -2 0 17 25 31 40 22 8 -5 18 -6 23
-3 5 3 6 -4 3 -15 -5 -15 -1 -24 15 -32 15 -8 19 -9 15 -1 -8 12 1 14 49 13
20 -1 25 2 16 8 -8 4 -21 6 -30 2 -9 -3 -13 -2 -9 3 4 4 24 9 45 10 21 2 32 1
26 -2 -17 -6 -16 -20 1 -26 10 -4 13 -1 10 8 -4 10 0 13 15 10 12 -2 21 1 21
6 0 6 5 7 11 4 6 -4 8 -10 5 -13 -3 -3 1 -14 11 -24 20 -23 6 -24 -19 -1 -10
9 -20 14 -23 11 -3 -3 6 -13 19 -22 18 -11 31 -13 48 -7 17 7 19 10 6 10 -25
1 -22 17 4 35 28 20 37 20 34 1 -3 -19 -16 -32 -16 -16 0 7 -5 9 -11 5 -8 -4
-6 -10 6 -17 12 -6 20 -6 25 3 5 8 10 9 14 2 4 -6 -1 -15 -10 -20 -15 -8 -15
-10 0 -15 9 -4 15 -3 13 1 -1 4 10 21 26 37 28 31 36 29 15 -5 -15 -23 -3 -39
15 -20 10 10 9 11 -2 5 -9 -5 -12 -3 -9 5 2 8 14 14 26 15 21 2 30 -9 15 -18
-5 -2 -2 -2 5 -1 6 2 12 -2 12 -8 0 -6 3 -9 6 -6 3 4 1 15 -5 27 -9 16 -8 22
8 31 26 13 28 13 28 -5 0 -9 -6 -14 -13 -11 -8 3 -11 0 -7 -10 6 -16 23 -19
23 -3 0 5 5 7 10 4 6 -4 8 -9 6 -13 -2 -4 2 -16 10 -27 8 -10 14 -14 14 -8 0
7 -4 14 -10 18 -5 3 0 16 12 30 12 13 25 22 30 19 12 -8 10 -24 -4 -21 -6 1
-13 -7 -15 -18 l-3 -20 9 20 c5 11 10 17 10 13 1 -4 16 -1 34 5 17 7 39 12 47
11 8 -1 23 -2 33 -3 14 -1 17 -6 11 -23 -6 -22 -6 -22 14 2 l22 25 6 -22 c3
-13 11 -23 16 -23 5 0 0 16 -12 35 -23 37 -24 37 38 39 18 1 37 8 42 16 14 21
12 6 -2 -25 -9 -19 -14 -22 -21 -13 -6 9 -6 6 -2 -7 4 -11 8 -29 7 -40 0 -11
2 -14 5 -7 3 6 10 9 16 6 8 -5 8 -2 0 7 -21 21 -15 34 6 15 11 -10 17 -25 14
-34 -4 -14 -3 -15 5 -2 8 10 8 18 0 27 -6 8 -8 17 -4 20 4 4 11 1 15 -6 6 -9
11 -10 15 -2 8 13 26 5 26 -10 0 -6 -6 -7 -12 -3 -7 4 -9 3 -5 -1 4 -5 14 -10
22 -11 11 -2 12 2 6 14 -4 10 -6 24 -4 32 4 12 3 12 -5 2 -7 -11 -10 -10 -16
3 -8 23 -8 24 10 21 18 -3 35 -26 27 -38 -6 -11 16 -38 31 -38 6 0 4 5 -5 10
-10 6 -15 20 -14 35 2 14 -2 25 -8 25 -5 0 -8 2 -5 5 8 9 38 -6 32 -16 -3 -5
2 -6 11 -3 10 4 15 2 13 -7 -2 -7 7 -18 20 -24 12 -5 22 -13 22 -17 0 -5 8 0
18 10 16 15 16 18 3 28 -12 9 -10 12 12 12 15 0 25 -4 22 -8 -2 -4 2 -16 10
-26 10 -12 13 -13 10 -4 -6 18 35 23 48 6 5 -7 7 -3 5 8 -2 10 3 21 11 24 9 3
11 0 7 -7 -9 -14 16 -10 26 4 5 6 8 3 8 -7 0 -12 7 -16 27 -14 15 2 29 8 31
15 2 6 8 8 14 5 14 -9 -21 -44 -38 -37 -8 3 -14 1 -14 -4 0 -5 11 -9 24 -9 14
0 23 3 20 7 -2 4 0 10 6 14 10 6 14 -7 11 -32 -1 -7 3 -13 8 -13 10 0 7 32 -4
50 -3 6 -1 10 4 10 6 0 11 -5 11 -10 0 -6 8 -5 20 2 10 7 15 15 10 18 -5 3 0
11 10 18 13 8 20 9 20 1 0 -5 5 -7 12 -3 7 4 8 3 4 -5 -4 -6 -12 -9 -17 -6 -5
4 -9 1 -9 -4 0 -6 7 -11 15 -11 14 0 20 12 16 33 -1 5 4 7 11 4 7 -2 11 -11 9
-18 -12 -44 -9 -54 18 -55 25 -2 26 -1 4 9 -13 5 -23 14 -23 19 0 5 5 6 11 3
6 -4 9 0 7 10 -2 10 3 20 11 23 8 3 11 0 7 -7 -5 -7 -1 -9 10 -4 10 4 15 2 11
-3 -3 -5 7 -25 22 -43 22 -26 30 -31 36 -20 5 8 5 11 0 7 -10 -9 -40 30 -30
40 3 3 11 0 16 -8 9 -13 10 -12 5 2 -3 10 -1 20 4 23 6 4 10 1 10 -4 0 -6 7
-11 15 -11 8 0 15 5 15 11 0 5 -4 8 -9 4 -5 -3 -13 0 -17 6 -4 8 -3 9 4 5 7
-4 12 -2 12 5 0 8 3 9 13 0 8 -6 17 -8 20 -4 4 3 7 -1 7 -11 0 -9 -4 -14 -10
-11 -6 4 -7 -1 -3 -11 5 -15 7 -15 17 2 10 18 36 31 36 19 0 -3 -9 -15 -20
-27 -11 -12 -20 -26 -20 -31 0 -5 10 2 21 17 13 16 27 25 36 22 8 -3 23 -1 34
4 12 7 19 7 19 1 0 -15 -36 -32 -54 -25 -9 3 -16 1 -16 -6 0 -6 5 -8 12 -4 8
5 9 2 4 -11 -6 -18 -6 -18 12 -2 10 9 22 14 25 10 4 -3 7 0 7 7 0 11 3 11 12
2 7 -7 17 -12 22 -12 6 0 3 5 -7 11 -14 8 -15 14 -6 30 7 15 14 17 23 10 9 -7
16 -7 25 2 11 10 12 8 7 -8 -3 -11 -1 -27 5 -35 8 -12 9 -10 4 8 -5 16 -2 22
10 22 10 0 13 -5 9 -13 -5 -8 -2 -8 9 2 13 10 20 11 31 1 8 -6 14 -17 12 -23
-1 -7 -1 -9 1 -4 3 4 10 4 16 0 7 -3 3 3 -7 15 -16 18 -16 22 -4 22 9 0 18 -6
21 -14 6 -16 47 -11 47 6 0 5 -10 4 -22 -3 -18 -10 -20 -9 -15 6 4 9 1 26 -7
37 -8 11 -12 27 -9 34 3 8 0 14 -5 14 -6 0 -9 -9 -7 -20 5 -25 -16 -22 -32 5
-7 11 -12 15 -13 8 0 -13 -18 -12 -39 1 -9 6 -12 5 -8 -1 4 -6 -1 -17 -10 -24
-14 -12 -15 -11 -9 9 5 14 3 22 -4 22 -6 0 -9 -4 -6 -8 2 -4 -4 -8 -14 -8 -10
0 -16 4 -14 8 3 4 1 8 -3 8 -5 0 -14 -9 -21 -21 -7 -12 -16 -18 -19 -15 -4 3
-18 -1 -31 -10 -23 -15 -25 -15 -19 1 4 9 7 19 7 21 0 3 4 2 10 -1 5 -3 7 0 4
9 -6 17 -84 18 -84 1 0 -5 -4 -4 -9 3 -7 11 -9 11 -14 -2 -4 -9 -13 -13 -22
-10 -8 3 -15 1 -15 -5 0 -6 -4 -11 -10 -11 -5 0 -9 3 -9 7 1 5 1 15 0 23 -1
13 -2 13 -11 0 -5 -8 -10 -10 -10 -4 0 6 -7 11 -16 11 -15 0 -14 -2 1 -14 10
-7 16 -16 12 -19 -4 -4 -13 -2 -20 4 -8 7 -16 10 -18 7 -3 -2 -5 4 -5 13 0 16
31 17 427 17 235 0 425 -3 422 -7 -2 -5 2 -8 9 -8 10 0 10 -2 -1 -9 -7 -5 -15
-19 -16 -32 -1 -13 -3 -27 -4 -31 -2 -11 -35 -2 -39 10 -2 8 3 10 14 5 12 -4
15 -2 12 8 -3 8 -1 22 3 31 6 11 5 19 -3 24 -7 4 -8 3 -4 -4 4 -7 2 -12 -3
-12 -6 0 -11 4 -11 8 0 5 -7 9 -16 9 -14 0 -14 -2 2 -14 22 -16 28 -44 8 -36
-8 3 -11 10 -7 16 3 5 1 7 -5 3 -6 -3 -14 3 -17 15 -6 17 -9 19 -16 8 -5 -8
-9 -9 -9 -3 0 6 -7 11 -16 11 -15 0 -14 -2 1 -14 10 -7 16 -16 12 -19 -4 -4
-13 -2 -21 5 -11 9 -15 9 -19 -1 -4 -10 -6 -10 -6 1 -1 11 -4 11 -16 1 -9 -8
-15 -8 -15 -2 0 6 3 12 8 15 4 2 1 2 -6 0 -7 -1 -10 2 -7 7 3 6 1 10 -5 10 -7
0 -9 -8 -5 -19 3 -11 0 -23 -6 -27 -7 -4 -9 -3 -5 4 3 6 2 13 -4 17 -6 4 -8
10 -6 14 3 3 -3 7 -13 7 -10 0 -18 -6 -18 -12 0 -7 5 -10 12 -8 6 3 11 -5 12
-17 2 -16 -1 -18 -12 -9 -8 6 -19 9 -24 6 -6 -4 -8 4 -5 19 2 14 0 25 -6 25
-6 0 -9 -4 -5 -9 3 -5 1 -12 -4 -16 -6 -3 -7 -13 -4 -23 3 -9 3 -14 -2 -10 -4
4 -14 3 -22 -3 -9 -8 -13 -8 -13 -1 0 6 5 14 10 17 6 3 10 12 10 18 0 7 -4 6
-11 -3 -9 -13 -10 -13 -6 0 2 8 12 14 22 12 10 -2 14 1 10 7 -10 18 -33 12
-40 -9 -6 -20 -7 -20 -24 2 l-18 22 1 -24 c1 -15 7 -24 15 -22 9 2 11 -3 7
-13 -3 -9 -2 -13 4 -10 11 7 32 -29 22 -39 -3 -4 2 -4 12 0 14 5 17 4 12 -4
-4 -7 -2 -12 3 -12 17 0 13 18 -6 29 -10 5 -15 12 -11 16 3 4 16 -3 27 -14 12
-12 21 -17 21 -12 0 6 -4 13 -10 16 -15 9 -12 25 5 25 8 0 14 -3 14 -7 -5 -29
3 -33 22 -12 14 16 19 18 15 7 -2 -9 1 -19 8 -21 9 -4 11 2 8 20 -3 17 -1 24
6 19 6 -3 13 -2 17 4 3 5 11 10 18 10 8 0 8 -3 -1 -12 -17 -17 -15 -31 3 -24
9 3 18 0 21 -7 2 -7 14 -14 26 -14 18 -2 16 2 -11 18 -17 10 -29 24 -26 29 7
12 26 14 22 3 -1 -5 2 -9 7 -10 5 -1 13 -7 18 -15 6 -9 7 -6 3 9 -4 16 -2 21
11 19 18 -3 41 -46 24 -46 -5 0 -11 8 -13 18 -3 9 -4 5 -4 -10 1 -20 5 -25 17
-19 8 5 23 7 33 5 10 -1 20 3 23 11 3 8 17 11 39 8 18 -2 36 1 40 7 5 7 -2 9
-19 4 -32 -8 -34 1 -4 17 18 10 24 8 35 -7 7 -10 13 -13 13 -8 0 6 -5 15 -11
21 -7 7 -7 13 -1 17 6 3 13 -3 17 -13 5 -17 10 -18 30 -9 14 6 22 16 18 21 -4
6 0 8 10 4 8 -3 21 1 27 9 9 10 9 14 1 14 -6 0 -11 -5 -11 -11 0 -8 -4 -8 -14
0 -11 10 -16 8 -21 -8 -3 -12 -13 -21 -21 -21 -19 0 -18 10 2 25 15 11 15 12
0 12 -9 0 -16 -4 -16 -9 0 -10 -23 -6 -33 7 -5 6 -7 4 -4 -6 4 -12 -2 -16 -22
-16 -18 0 -27 6 -28 17 -1 14 22 16 228 16 201 -1 229 -3 224 -16 -4 -11 -1
-10 9 3 15 19 31 23 20 5 -6 -10 -4 -10 7 -2 16 13 58 13 78 0 9 -6 12 -5 8 1
-4 6 35 10 104 10 101 1 109 0 97 -15 -10 -14 -9 -14 8 1 16 13 35 17 74 15
47 -3 55 0 73 24 l20 26 -40 69 c-22 37 -139 239 -260 448 -220 380 -254 439
-289 505 -11 19 -21 37 -24 40 -18 18 -39 69 -30 75 5 3 9 14 9 23 -1 15 -2
15 -6 -1 -5 -20 -24 -18 -31 3 -3 8 0 10 9 5 8 -4 1 4 -16 18 -23 20 -27 28
-18 37 6 7 17 9 24 4 9 -5 8 -9 -7 -15 -16 -6 -16 -8 -2 -8 21 -1 29 11 18 28
-4 8 -17 12 -29 8 -13 -3 -21 0 -21 8 0 17 57 65 78 66 14 0 14 2 2 6 -8 4
-21 12 -28 20 -17 16 -36 12 -38 -8 -3 -31 -5 -33 -14 -19 -6 10 -4 22 5 37 8
12 12 30 8 40 -6 16 -5 16 11 4 13 -11 19 -12 29 -2 9 10 8 12 -7 9 -10 -1
-21 2 -23 7 -2 6 6 11 16 12 13 1 27 -11 40 -33 12 -19 26 -32 31 -29 6 4 8
11 4 16 -3 5 -10 7 -15 4 -15 -10 -10 12 6 25 8 7 15 17 15 23 0 6 -7 2 -15
-10 l-15 -22 -27 27 c-29 28 -34 46 -21 74 9 20 0 50 -13 42 -5 -3 -9 4 -9 15
0 29 13 26 33 -9 14 -23 16 -34 7 -52 -11 -22 -10 -22 4 -4 21 26 20 31 -6 66
-16 22 -27 29 -42 24 -18 -5 -17 -2 7 20 15 15 27 33 27 40 0 9 7 12 19 9 10
-3 21 -1 24 4 3 5 -6 8 -21 7 -14 0 -28 -7 -30 -14 -7 -19 -44 -60 -55 -60 -5
0 -4 7 3 15 16 19 22 83 9 91 -6 3 -2 12 8 19 17 13 17 14 0 32 -20 23 -22 34
-5 31 7 -2 13 6 14 17 1 16 0 17 -3 2 -3 -13 -8 -15 -17 -8 -8 7 -12 5 -13 -9
-1 -11 3 -22 8 -25 5 -4 6 -11 3 -17 -4 -6 -10 -5 -16 3 -7 11 -8 9 -4 -4 4
-12 2 -17 -6 -14 -7 2 -12 13 -10 23 3 19 3 19 -11 0 -13 -17 -14 -17 -14 12
0 27 3 30 19 21 12 -6 18 -6 18 1 0 5 -7 10 -15 10 -8 0 -15 5 -15 11 0 5 5 7
10 4 6 -4 10 -3 9 2 -3 20 2 33 12 31 6 -2 13 3 14 10 2 7 1 8 -2 2 -3 -7 -12
-5 -24 6 -10 9 -19 12 -19 6 0 -6 4 -12 10 -14 5 -2 6 -9 1 -17 -7 -11 -11 -9
-21 8 -9 18 -9 26 2 39 7 9 9 13 3 11 -9 -5 -45 24 -45 36 0 3 0 10 0 16 0 8
-4 8 -13 1 -7 -6 -20 -10 -30 -8 -19 2 -35 16 -21 17 61 5 90 19 33 16 -18 -1
-34 3 -36 10 -3 8 6 10 29 8 24 -3 29 -2 18 5 -13 8 -13 10 2 10 9 0 19 -6 21
-12 4 -10 6 -10 6 0 1 19 -24 25 -48 12 -14 -7 -21 -7 -21 0 0 5 5 10 10 10 6
0 10 5 10 11 0 8 -5 8 -15 -1 -9 -8 -15 -9 -15 -2 0 6 10 18 22 26 12 9 19 18
17 21 -3 2 -15 -4 -26 -15 -15 -13 -23 -16 -26 -7 -4 9 -7 9 -18 0 -18 -18
-34 -16 -20 1 6 8 10 18 9 22 -3 10 31 47 58 62 9 5 19 17 20 26 1 9 -2 14 -7
10 -5 -3 -6 -10 -3 -16 5 -8 1 -9 -12 -4 -10 4 -16 4 -12 1 6 -6 -26 -45 -37
-45 -3 0 -5 9 -5 20 0 11 3 19 8 18 9 -4 55 42 49 48 -2 2 -10 -3 -17 -11 -12
-14 -15 -13 -31 12 -11 15 -19 23 -19 17 0 -5 7 -19 15 -30 19 -25 19 -29 -5
-31 -11 -1 -18 2 -15 7 7 11 -5 41 -14 36 -3 -2 -11 7 -18 20 -13 27 1 33 16
7 6 -10 11 -13 11 -7 0 5 -9 20 -19 31 -21 22 -18 35 4 27 14 -6 41 33 30 44
-3 3 -8 -4 -12 -16 -3 -12 -10 -22 -15 -22 -5 0 -7 4 -4 9 3 5 -1 14 -9 21 -8
7 -15 8 -15 3 0 -5 -7 -10 -15 -10 -16 0 -19 7 -7 22 8 12 27 13 38 3 4 -5 12
-8 18 -8 5 0 1 7 -10 15 -19 15 -19 16 1 13 11 -2 24 -7 28 -13 5 -6 7 -4 5 4
-5 17 -44 25 -53 11 -7 -12 -65 25 -65 41 0 6 13 1 28 -10 20 -14 32 -17 43
-10 12 8 12 9 -1 7 -8 -1 -25 4 -37 12 -21 13 -21 16 -6 32 9 10 13 18 8 18
-10 0 -45 -40 -45 -52 0 -5 -5 -6 -12 -2 -18 11 -58 13 -58 3 0 -6 -5 -7 -10
-4 -14 9 -1 28 15 21 7 -2 17 0 23 6 6 6 12 6 17 -1 4 -8 13 -3 25 11 17 21
17 25 4 46 -8 12 -12 22 -9 22 3 0 1 9 -5 20 -9 16 -8 22 5 26 8 3 15 11 15
17 0 5 -8 3 -18 -6 -17 -16 -20 -15 -39 21 -11 20 -18 44 -16 52 3 11 2 12 -4
2 -11 -14 -55 27 -73 68 -10 24 -10 24 -4 -5 5 -28 5 -29 -14 -12 -10 9 -22
14 -27 10 -4 -5 -5 -1 -3 7 3 8 11 14 17 13 6 -2 11 2 11 7 0 13 -13 13 -27
-1 -14 -14 -38 0 -38 21 0 8 -9 15 -19 15 -10 0 -23 9 -27 20 -12 31 -10 37 5
23 8 -7 11 -17 8 -23 -3 -5 -1 -7 3 -2 5 4 18 0 31 -8 20 -13 23 -12 28 1 8
21 8 24 -5 24 -5 0 -7 -4 -4 -10 9 -14 -8 -12 -30 4 -16 12 -17 16 -6 30 11
13 11 19 1 31 -7 8 -20 15 -29 14 -13 0 -14 -2 -1 -6 19 -7 30 -24 24 -35 -8
-12 -24 -10 -21 3 4 18 -19 21 -36 4 -19 -19 -24 -19 -24 0 0 8 8 17 18 20 12
4 17 16 17 36 -1 25 -4 28 -22 23 -19 -6 -20 -5 -6 12 8 10 10 16 5 11 -4 -4
-17 5 -28 20 -12 18 -16 21 -12 8 8 -23 9 -34 4 -55 -3 -10 4 -15 20 -15 13 0
26 -5 28 -10 4 -13 -36 -14 -55 -2 -7 5 -12 20 -12 35 0 54 -3 67 -26 95 -13
16 -24 24 -24 18 0 -6 -4 -11 -10 -11 -5 0 -9 3 -9 8 4 26 -1 32 -21 20 -11
-7 -18 -19 -15 -25 5 -15 -4 -16 -24 -4 -18 11 -7 43 13 35 8 -3 17 -1 21 5 4
7 0 8 -11 4 -10 -4 -15 -2 -11 3 3 6 2 16 -3 24 -8 13 -12 11 -25 -7 -9 -13
-21 -23 -27 -23 -6 0 -3 9 8 21 14 15 16 24 7 37 -12 20 -39 23 -36 5 3 -15
-13 -17 -20 -3 -3 6 -4 5 -3 -2 1 -7 12 -14 24 -14 19 -1 20 1 10 14 -11 13
-10 14 2 10 23 -7 19 -43 -5 -41 -11 1 -14 0 -7 -3 17 -8 5 -24 -13 -17 -8 3
-15 0 -15 -7 0 -6 5 -8 10 -5 6 3 10 2 10 -3 0 -6 -7 -13 -16 -16 -22 -8 -24
-8 -20 7 1 6 1 9 -1 5 -3 -5 -11 -8 -18 -8 -8 0 -17 -4 -20 -10 -8 -13 25 -61
38 -53 6 3 7 1 3 -5 -4 -7 -3 -12 3 -12 5 0 12 6 15 13 3 6 4 5 3 -5 -1 -9 3
-17 8 -17 6 0 9 6 7 14 -1 7 4 12 12 11 19 -3 33 -16 18 -16 -7 0 -12 -4 -12
-9 0 -11 18 -9 50 8 23 11 24 11 6 -3 -14 -11 -15 -16 -6 -16 9 0 7 -5 -6 -15
-18 -14 -18 -14 3 -10 12 2 27 -3 33 -11 7 -7 16 -12 20 -9 5 3 7 -6 6 -20 -2
-13 1 -22 6 -19 5 3 8 2 7 -3 -4 -21 2 -34 12 -27 8 4 7 9 -2 15 -8 5 -9 9 -3
9 17 0 32 -22 29 -43 -2 -10 1 -14 7 -11 7 5 8 2 3 -7 -7 -11 -5 -11 10 1 10
8 16 10 12 3 -5 -8 1 -10 20 -8 l26 3 -24 -19 c-13 -9 -20 -21 -16 -25 4 -4 7
-2 7 4 0 7 4 12 8 12 5 0 9 -7 9 -15 0 -8 -5 -11 -11 -8 -6 3 -8 3 -4 -2 4 -4
3 -14 -2 -20 -12 -14 25 -75 50 -83 12 -4 13 -2 3 9 -8 10 -9 20 -3 29 9 13
10 13 10 0 0 -13 1 -13 10 0 7 12 10 12 10 1 0 -8 6 -11 18 -7 9 4 4 -5 -13
-19 -16 -15 -24 -24 -17 -20 17 9 11 -17 -7 -31 -11 -9 -11 -11 3 -11 9 0 16
5 16 11 0 5 7 1 16 -10 8 -10 13 -12 9 -4 -4 9 0 7 9 -4 8 -10 20 -15 27 -10
8 5 10 3 4 -6 -6 -9 -4 -11 5 -5 9 5 11 4 6 -3 -5 -8 -1 -10 11 -6 16 6 15 4
-2 -10 -11 -10 -13 -14 -5 -10 12 6 13 5 4 -7 -5 -8 -9 -24 -8 -36 0 -13 -3
-23 -7 -23 -5 0 -9 7 -9 17 0 9 -3 13 -7 9 -20 -20 2 -53 23 -35 8 6 16 4 25
-8 12 -14 12 -16 0 -8 -10 5 -12 4 -7 -3 14 -23 22 -12 22 28 0 31 -3 39 -14
35 -12 -5 -13 -3 -2 10 11 13 15 13 21 3 5 -7 6 -21 3 -30 -3 -10 0 -18 6 -18
6 0 8 5 4 12 -4 7 -3 8 4 4 9 -5 9 -13 1 -28 -8 -15 -8 -23 1 -32 8 -8 9 -6 4
8 -7 19 -7 19 12 0 11 -10 16 -20 12 -22 -4 -2 -8 -8 -8 -13 0 -6 4 -8 9 -4 5
3 12 1 16 -4 3 -6 13 -8 23 -5 14 5 14 3 -2 -10 -17 -13 -18 -18 -6 -29 10
-10 11 -9 5 2 -6 10 -4 12 5 6 9 -6 11 -4 5 5 -5 8 -4 11 3 6 17 -10 2 -38
-17 -32 -11 4 -10 2 3 -9 13 -10 15 -15 6 -15 -7 0 -10 -3 -7 -6 3 -4 2 -16
-4 -27 -9 -15 -8 -18 3 -12 7 3 4 -1 -6 -9 -11 -9 -15 -16 -9 -16 6 0 16 7 23
15 9 11 16 12 30 3 17 -11 17 -13 2 -26 -11 -9 -12 -11 -2 -6 13 7 13 6 0 -10
-13 -16 -12 -20 3 -31 13 -9 14 -14 6 -17 -9 -3 -7 -7 5 -11 12 -5 15 -3 10 6
-4 6 -4 9 1 5 4 -4 15 -2 24 4 12 10 12 7 -2 -8 -9 -11 -14 -25 -10 -29 5 -5
0 -3 -10 4 -23 18 -32 8 -16 -20 11 -22 12 -22 25 -4 16 22 19 12 4 -15 -8
-15 -6 -21 7 -29 10 -6 13 -11 6 -11 -7 0 -10 -7 -6 -16 5 -15 7 -15 15 0 5 9
7 20 4 24 -2 4 4 9 15 9 16 2 18 -1 10 -11 -6 -7 -7 -17 -3 -21 4 -5 2 -5 -4
-2 -7 4 -14 1 -17 -7 -10 -25 5 -26 26 -3 13 14 18 16 14 6 -3 -9 0 -23 6 -30
9 -9 7 -9 -8 1 -17 12 -18 12 -8 0 10 -11 9 -17 -4 -32 -28 -31 -4 -33 30 -2
l32 29 -25 -29 c-14 -16 -18 -26 -10 -21 8 5 12 4 7 0 -4 -5 1 -17 10 -28 10
-11 12 -17 5 -13 -11 7 -12 4 -3 -13 7 -11 9 -21 5 -21 -3 0 -2 -6 5 -13 8
-10 7 -17 -2 -27 -9 -10 -9 -11 0 -6 9 5 11 1 7 -11 -5 -15 -4 -16 5 -3 6 8
11 11 11 6 0 -5 8 -2 18 5 16 13 16 12 2 -6 -11 -16 -11 -17 0 -7 8 6 18 12
23 12 5 0 1 -8 -10 -17 -10 -10 -12 -13 -3 -8 13 9 13 8 1 -7 -7 -10 -17 -15
-22 -12 -5 3 -9 0 -9 -5 0 -6 3 -11 8 -12 4 0 15 -2 24 -4 9 -2 22 3 29 11 6
8 16 14 22 14 6 0 2 -7 -9 -16 -10 -8 -14 -13 -8 -10 6 3 11 -1 11 -9 0 -8 -4
-12 -8 -10 -3 3 -13 -3 -20 -12 -8 -10 -9 -14 -2 -10 6 4 15 2 19 -4 5 -8 3
-9 -6 -4 -8 5 -11 4 -6 -3 4 -6 14 -9 24 -6 14 5 15 4 2 -5 -13 -9 -13 -11 0
-11 13 0 13 -1 0 -10 -12 -8 -12 -10 -1 -10 8 0 11 -3 8 -7 -12 -11 14 -32 31
-26 14 6 15 4 5 -9 -7 -8 -12 -17 -10 -19 1 -2 -5 4 -13 14 -9 10 -19 15 -23
11 -4 -4 8 -18 25 -31 18 -12 28 -23 23 -23 -5 0 -17 8 -27 17 -15 14 -21 14
-31 3 -10 -10 -9 -12 5 -7 9 3 22 -1 30 -11 11 -13 11 -15 -2 -7 -13 8 -13 7
-1 -8 7 -9 11 -18 7 -18 -3 -1 -10 -2 -15 -3 -18 -2 -22 -14 -7 -19 16 -6 41
25 29 37 -3 3 -2 6 4 6 20 0 23 -14 6 -33 -11 -12 -12 -17 -4 -12 9 5 12 4 7
-3 -3 -6 -2 -13 3 -17 6 -3 8 -12 5 -19 -3 -9 3 -17 15 -21 12 -3 19 -11 15
-16 -4 -6 -11 -6 -19 1 -10 8 -15 8 -21 -1 -5 -8 -3 -9 6 -4 9 6 11 4 5 -5 -6
-9 -4 -11 5 -5 9 6 11 4 5 -6 -5 -8 0 -7 12 3 28 26 36 22 17 -7 -9 -14 -14
-28 -10 -32 3 -3 6 -2 6 4 0 6 8 14 18 18 13 5 14 4 5 -6 -9 -9 -9 -17 -2 -32
8 -14 8 -18 0 -13 -6 4 -11 2 -11 -3 0 -6 7 -11 15 -11 8 0 15 -4 15 -8 0 -17
-33 -8 -38 10 -2 10 -9 18 -14 18 -5 0 -7 4 -4 9 4 5 -6 23 -20 40 -14 17 -23
31 -19 31 3 0 -3 13 -15 30 -12 17 -18 30 -13 30 4 0 0 5 -10 11 -14 8 -16 14
-7 25 10 11 7 16 -14 25 -24 11 -24 13 -8 26 15 13 15 13 -8 8 -19 -5 -22 -4
-10 4 13 9 8 15 -11 13 -3 -1 -5 13 -4 30 2 29 1 30 -13 12 -13 -17 -14 -17
-9 -1 4 11 1 20 -8 23 -8 4 -13 10 -10 14 3 5 -5 16 -17 24 -12 9 -17 16 -10
16 6 0 12 5 12 11 0 5 -4 8 -9 4 -5 -3 -12 -2 -15 3 -2 4 5 9 16 9 15 2 19 -3
15 -17 -3 -11 1 -24 7 -30 10 -7 13 -1 13 29 0 37 -1 38 -33 36 -25 -1 -31 2
-26 13 3 10 1 13 -7 8 -7 -5 -10 -2 -9 6 2 7 -2 12 -9 11 -7 -2 -10 4 -7 12 4
8 13 15 22 15 12 0 13 3 4 12 -8 8 -15 8 -28 -3 -12 -9 -15 -10 -10 -1 4 6 3
12 -2 12 -6 0 -13 7 -16 16 -5 14 -4 15 9 4 9 -8 15 -8 15 -2 0 6 -5 14 -10
17 -8 5 -7 12 2 22 11 14 10 15 -8 9 -14 -4 -29 0 -45 13 -22 19 -17 27 14 22
10 -2 9 17 -2 24 -5 3 -12 1 -16 -5 -3 -5 -12 -10 -18 -10 -7 0 -6 4 3 10 17
11 23 73 6 67 -6 -2 -10 -17 -10 -32 1 -26 0 -27 -12 -10 -7 10 -11 22 -8 26
3 5 0 9 -6 9 -6 0 -4 10 5 24 11 16 13 26 6 31 -6 3 -11 2 -11 -2 0 -5 -7 -18
-16 -29 -15 -18 -15 -18 -5 3 15 30 14 32 -9 28 -17 -3 -19 -1 -9 17 10 18 8
19 -13 13 -12 -3 -18 -3 -12 2 6 4 14 19 18 33 l7 25 -21 -25 c-18 -21 -20
-21 -11 -4 6 12 7 25 3 29 -4 5 -1 5 6 1 6 -4 12 -2 12 4 0 6 -8 10 -17 8 -10
-2 -17 -10 -15 -17 1 -7 -2 -9 -9 -6 -8 5 -8 10 0 18 18 18 13 31 -6 16 -15
-11 -16 -11 -5 1 18 21 15 35 -5 19 -9 -8 -14 -9 -10 -3 4 7 0 15 -9 18 -13 5
-14 9 -5 20 8 10 9 16 1 21 -5 3 -10 1 -10 -6 0 -7 -3 -10 -6 -6 -12 12 7 28
21 17 9 -8 14 -6 19 7 4 10 4 14 0 11 -4 -4 -15 -3 -25 2 -12 7 -19 6 -22 -3
-2 -6 -8 -8 -13 -4 -13 12 17 27 35 18 9 -5 22 -6 30 -3 10 3 12 -1 8 -14 -6
-16 -5 -17 6 -4 15 18 37 24 37 10 0 -5 -6 -10 -12 -10 -17 0 -77 -49 -61 -50
6 0 14 4 18 10 3 5 13 6 22 3 11 -4 14 -2 9 5 -3 6 2 16 13 22 11 5 19 19 18
30 -1 14 -4 16 -14 8 -8 -6 -13 -7 -13 -1 0 6 -10 10 -22 10 -41 1 -49 3 -44
12 7 11 -22 23 -35 15 -5 -3 -9 -11 -9 -17 0 -8 3 -8 9 2 5 8 11 9 15 3 3 -5
-1 -12 -9 -16 -18 -6 -37 25 -26 42 4 7 14 10 23 7 8 -3 20 1 27 9 11 13 9 15
-18 11 -23 -3 -32 1 -36 16 -4 11 -11 16 -17 13 -6 -4 -6 -10 1 -17 6 -6 11
-18 11 -27 0 -9 -6 -5 -14 10 -7 14 -9 29 -4 35 13 14 10 25 -8 25 -11 0 -14
5 -10 16 4 10 2 14 -6 11 -7 -2 -12 -10 -10 -16 1 -7 -3 -9 -9 -6 -8 5 -8 10
0 18 13 13 14 37 2 37 -5 0 -11 -7 -13 -15 -2 -10 -7 -6 -15 11 -10 21 -10 24
2 14 11 -9 14 -8 13 7 0 10 0 23 2 28 5 20 0 36 -10 30 -5 -3 -7 -12 -4 -19 7
-18 -12 -30 -22 -15 -4 8 -3 9 4 5 7 -4 12 -2 12 3 0 6 -3 11 -7 11 -5 0 -19
9 -33 20 -14 11 -20 20 -15 19 23 -3 29 2 15 12 -13 9 -13 10 2 6 9 -3 22 1
28 9 10 12 7 13 -18 10 -33 -4 -67 12 -44 21 17 7 5 23 -13 16 -9 -3 -15 1
-15 10 0 8 -6 18 -12 21 -7 3 -3 3 10 0 21 -5 22 -4 10 15 -7 12 -16 21 -21
21 -4 0 -5 -4 -2 -10 3 -5 2 -10 -4 -10 -18 0 -21 19 -4 24 10 3 19 17 19 31
1 14 -1 23 -5 21 -4 -3 -13 -1 -21 4 -9 5 -19 5 -27 -2 -7 -6 -14 -8 -14 -4
-1 3 -2 9 -3 14 -1 4 -16 27 -34 51 -17 24 -32 48 -32 53 0 15 -4 23 -20 41
-9 9 -23 30 -31 45 -8 15 -18 30 -22 33 -4 3 -9 16 -10 27 -1 12 -7 22 -13 22
-6 0 -14 8 -18 18 -3 9 -13 31 -23 47 -50 84 -120 203 -133 227 -8 14 -82 141
-164 282 -138 237 -151 256 -176 256 -26 0 -39 -20 -184 -270z m889 -606 c-16
-15 -24 -23 -17 -20 6 4 12 3 12 -3 0 -18 39 -33 58 -22 10 7 12 11 4 11 -7 0
-10 5 -7 10 11 18 22 11 20 -12 -4 -42 -5 -43 -15 -28 -13 21 -13 3 1 -22 9
-16 8 -19 -3 -13 -7 3 -4 -1 6 -9 18 -14 15 -21 -7 -17 -5 1 -6 -3 -3 -8 4 -5
15 -8 26 -6 25 5 59 24 43 25 -14 0 -13 21 0 31 4 3 1 11 -7 18 -11 9 -16 9
-22 0 -5 -8 -3 -9 6 -4 8 5 11 3 8 -5 -4 -14 -38 -24 -38 -11 0 3 7 17 16 29
14 21 16 21 34 4 12 -11 18 -27 15 -40 -2 -13 1 -22 8 -22 8 0 8 -3 2 -8 -12
-9 -18 -55 -6 -48 5 3 14 -1 21 -9 8 -9 21 -13 34 -10 16 5 17 4 7 -4 -18 -11
-23 -39 -9 -47 5 -3 17 1 27 10 22 20 38 21 22 2 -6 -7 -8 -22 -4 -31 4 -12 3
-16 -5 -11 -6 3 -14 1 -18 -5 -4 -8 -3 -9 4 -5 7 4 12 2 12 -3 0 -6 4 -10 9
-8 5 1 9 -2 9 -7 0 -5 6 -13 14 -18 10 -8 10 -9 -2 -5 -8 2 -14 10 -12 16 1 7
-2 10 -8 6 -6 -4 -17 -2 -25 5 -11 9 -13 7 -11 -7 2 -11 10 -17 21 -15 11 2
14 -1 10 -8 -4 -6 -14 -9 -24 -6 -12 5 -12 3 3 -8 16 -13 21 -13 41 0 24 16
59 9 51 -11 -2 -7 0 -17 6 -23 8 -8 6 -13 -6 -18 -14 -5 -15 -9 -4 -15 10 -7
10 -9 -2 -9 -13 0 -13 -1 0 -10 11 -8 9 -9 -10 -6 -14 3 -29 5 -35 5 -5 1 1 8
13 17 20 14 22 41 2 29 -5 -3 -11 -1 -15 5 -4 6 -11 8 -16 5 -5 -4 -9 -1 -9 4
0 6 -5 11 -11 11 -5 0 -8 -4 -5 -8 7 -12 -12 -38 -21 -29 -4 5 -1 12 7 17 8 6
12 10 8 11 -5 1 -12 3 -18 4 -5 1 -13 3 -17 4 -3 0 1 9 9 19 9 9 14 25 13 34
-2 10 1 20 6 24 16 9 10 26 -7 20 -9 -4 -23 -1 -32 6 -8 7 -18 13 -21 13 -3 0
-5 3 -4 7 2 4 -9 16 -23 27 -14 11 -27 28 -28 38 -2 10 -8 18 -15 18 -20 0
-43 37 -31 49 5 5 10 14 10 18 0 13 -33 5 -48 -12 -8 -8 -11 -10 -8 -4 9 18
-15 30 -54 29 -20 0 -40 6 -47 15 -20 25 -15 30 22 26 27 -3 35 0 40 14 3 11
12 17 19 14 7 -3 19 2 26 11 7 8 18 15 24 15 6 -1 -2 -12 -19 -26z m98 -115
c5 -3 2 -9 -5 -12 -9 -3 -14 3 -15 15 -1 11 1 16 5 12 4 -5 11 -12 15 -15z
m-73 -149 c0 -12 -29 -20 -35 -10 -9 15 4 30 20 23 8 -3 15 -9 15 -13z m260
-40 c0 -5 -4 -10 -10 -10 -5 0 -10 5 -10 10 0 6 5 10 10 10 6 0 10 -4 10 -10z
m57 -72 c-1 -10 -6 -18 -12 -18 -5 0 -2 -5 8 -11 24 -14 22 -33 -2 -19 -17 9
-19 7 -16 -10 2 -13 0 -18 -7 -14 -6 4 -6 -1 1 -15 7 -11 17 -21 24 -21 8 0 7
4 -3 10 -8 5 -11 13 -6 17 8 7 19 -8 16 -22 -2 -12 70 -76 79 -71 5 4 13 1 16
-5 4 -5 14 -8 22 -5 9 4 13 1 10 -6 -2 -7 -11 -11 -18 -9 -33 8 -58 8 -53 -1
3 -5 11 -7 17 -5 6 2 20 -6 30 -17 10 -12 16 -16 12 -9 -3 7 3 18 14 25 19 11
19 14 4 30 -12 14 -13 18 -3 18 9 0 7 7 -7 23 -11 12 -28 37 -37 55 -19 37
-25 40 -23 13 0 -11 5 -17 9 -15 4 3 8 0 8 -6 0 -6 -7 -10 -17 -8 -19 3 -26
37 -12 54 11 14 -13 26 -34 18 -8 -3 -14 2 -14 10 0 26 38 13 70 -25 36 -41
79 -111 75 -119 -2 -3 5 -18 15 -34 18 -27 18 -28 -2 -21 -14 4 -23 0 -31 -15
-6 -11 -15 -18 -21 -14 -5 3 -17 0 -25 -7 -13 -10 -17 -10 -24 1 -5 8 -7 18
-4 22 3 4 -3 19 -12 33 -9 14 -12 25 -8 25 5 0 2 5 -6 10 -10 6 -21 4 -34 -8
-19 -17 -19 -16 -2 10 17 26 17 27 -6 39 -13 8 -25 13 -28 14 -3 0 -19 10 -35
22 l-30 22 35 -2 c29 -2 35 1 35 18 -1 11 4 23 9 27 6 4 5 12 -3 22 -10 12 -9
15 7 13 13 -1 20 -8 19 -19z m38 -58 c-2 -16 1 -32 6 -36 5 -3 7 -15 3 -26 -6
-19 -5 -19 16 2 l21 21 18 -23 c18 -23 24 -58 10 -58 -4 0 -11 5 -14 10 -4 6
-11 8 -16 5 -5 -4 -12 1 -15 9 -3 9 -10 14 -15 11 -4 -3 -13 3 -18 14 -8 14
-8 21 2 24 6 3 4 6 -7 6 -16 1 -17 3 -5 18 9 11 10 14 2 9 -7 -4 -21 -2 -30 4
-17 11 -17 11 0 6 13 -4 20 0 24 14 8 31 22 23 18 -10z m-29 -149 c0 -16 -3
-17 -14 -9 -12 10 -7 19 13 28 1 0 1 -9 1 -19z m154 -21 c0 -5 -4 -10 -10 -10
-5 0 -10 5 -10 10 0 6 5 10 10 10 6 0 10 -4 10 -10z m0 -60 c0 -5 -5 -12 -10
-15 -8 -5 -7 -12 1 -22 10 -12 10 -16 -2 -24 -10 -6 -10 -9 -1 -9 6 0 12 -5
12 -11 0 -5 -4 -8 -9 -4 -5 3 -13 0 -17 -6 -5 -8 -3 -9 6 -4 9 5 11 1 6 -16
-3 -13 -3 -18 0 -10 5 11 8 11 15 0 7 -11 9 -11 9 -1 0 7 5 10 10 7 6 -4 7
-12 3 -18 -4 -6 -7 -23 -8 -37 -1 -22 3 -26 24 -25 16 0 25 -5 24 -12 -2 -7 3
-13 10 -13 8 0 7 -4 -3 -10 -11 -7 -11 -10 -2 -10 7 0 10 -5 7 -10 -5 -8 -11
-8 -19 -1 -9 8 -13 7 -13 -4 0 -8 4 -12 9 -9 5 3 8 2 7 -3 -3 -20 2 -34 11
-28 6 3 10 0 10 -7 0 -9 3 -9 10 2 6 10 10 11 10 3 0 -7 5 -13 12 -13 9 0 9 3
0 12 -12 12 1 38 20 38 6 0 5 -7 -2 -15 -7 -9 -10 -18 -7 -22 4 -3 2 -12 -4
-19 -14 -17 7 -29 26 -14 17 14 27 -1 31 -46 3 -38 1 -39 -28 -23 -17 9 -25 6
-51 -18 -28 -25 -29 -25 -9 -2 12 14 19 29 15 33 -4 4 -8 15 -8 24 0 10 -7 16
-15 14 -11 -2 -11 1 3 11 26 21 21 25 -25 22 -23 -2 -38 -1 -32 3 14 11 16 33
4 47 -8 10 -6 17 10 28 14 10 18 17 10 22 -6 4 -16 2 -23 -3 -8 -7 -18 -6 -31
3 -16 13 -17 16 -3 35 16 23 12 55 -4 44 -5 -3 -12 2 -15 11 -6 14 -9 14 -16
3 -7 -9 -8 -7 -3 7 4 11 8 25 9 30 2 6 7 18 11 29 5 11 3 21 -5 26 -8 5 -9 9
-1 14 6 4 11 13 11 19 0 8 -3 8 -8 2 -9 -12 -38 -13 -49 -1 -4 5 -3 7 2 4 6
-3 19 -2 30 2 22 8 45 3 45 -10z m44 -47 c-9 -14 -10 -23 -4 -23 6 0 8 -5 5
-10 -4 -6 -10 -8 -15 -5 -5 3 -13 -2 -18 -12 -9 -14 -10 -13 -9 9 1 14 5 24
10 21 13 -8 7 14 -8 27 -11 9 -12 16 -3 30 11 17 13 17 34 2 21 -16 21 -19 8
-39z m46 -38 c-7 -8 -17 -12 -24 -8 -6 4 -5 -1 2 -10 8 -9 11 -21 8 -26 -4 -5
-2 -12 4 -16 15 -9 12 -25 -4 -19 -8 3 -13 14 -11 24 2 10 -4 25 -13 32 -15
12 -16 11 -3 -4 11 -15 11 -18 0 -18 -12 0 -12 -2 0 -9 9 -6 10 -11 3 -15 -6
-4 -9 -13 -5 -21 3 -10 1 -13 -9 -10 -15 6 -17 32 -5 52 4 6 3 14 -3 18 -5 3
-10 11 -10 16 0 6 4 8 9 4 6 -3 15 1 22 8 7 7 21 14 32 14 15 2 16 -1 7 -12z
m-2690 -79 c0 -2 -7 -7 -16 -10 -8 -3 -12 -2 -9 4 6 10 25 14 25 6z m2720 -38
c0 -10 -13 -10 -26 0 -5 4 2 -3 15 -15 l25 -22 -23 -25 c-27 -28 -63 -26 -37
3 19 21 18 30 -6 69 l-20 33 36 -18 c20 -9 36 -20 36 -25z m-2680 -1 c0 -7 -4
-6 -10 3 -6 10 -10 11 -10 3 0 -7 -5 -13 -11 -13 -8 0 -8 5 1 15 13 16 30 11
30 -8z m98 -57 c13 -11 22 -24 20 -29 -1 -5 -15 4 -29 20 -30 33 -25 38 9 9z
m2470 -25 c-3 -3 -9 2 -12 12 -6 14 -5 15 5 6 7 -7 10 -15 7 -18z m-2418 -5
c-9 -6 -6 -10 9 -15 13 -4 20 -9 18 -12 -11 -10 -46 18 -41 32 4 8 11 12 16 9
6 -4 6 -9 -2 -14z m2581 -131 c12 -6 18 -17 15 -25 -3 -9 -1 -12 4 -9 6 3 10
1 10 -5 0 -6 -8 -10 -17 -8 -10 2 -18 12 -18 22 0 11 -8 20 -18 22 -9 1 -15
-2 -11 -7 3 -5 10 -7 15 -4 5 4 9 1 9 -5 0 -7 -7 -10 -17 -6 -15 5 -15 4 1 -9
11 -8 14 -15 7 -15 -7 0 -9 -5 -5 -11 4 -8 9 -7 15 2 5 8 9 11 9 7 0 -3 3 -13
6 -22 4 -11 0 -14 -15 -11 -12 2 -19 0 -16 -6 4 -5 11 -6 17 -3 6 4 8 2 5 -3
-8 -12 20 -39 30 -29 3 3 1 6 -6 6 -7 0 -9 5 -6 10 9 15 27 1 21 -17 -3 -8 -2
-11 4 -8 5 3 7 -3 5 -14 -3 -15 1 -19 16 -16 11 2 17 0 15 -4 -3 -4 6 -6 21
-3 22 4 25 2 20 -12 -4 -10 -2 -27 4 -38 9 -16 8 -19 -3 -15 -7 2 -12 9 -11
15 1 5 -4 9 -13 8 -16 -2 -20 -20 -4 -22 6 -1 13 -2 17 -3 4 0 -2 -8 -13 -16
-19 -15 -19 -15 1 -9 18 5 18 4 3 -6 -9 -6 -15 -17 -12 -25 4 -8 2 -15 -4 -15
-6 0 -9 8 -7 18 1 9 -7 25 -19 35 -18 15 -18 16 -2 11 14 -5 17 -3 14 7 -7 18
10 51 22 44 5 -3 11 -2 14 3 7 11 -46 9 -64 -3 -30 -19 -40 -13 -19 13 19 25
19 27 3 39 -13 9 -21 10 -31 2 -7 -6 -13 -9 -13 -5 0 15 -2 22 -10 31 -4 6 -6
19 -4 30 1 11 -3 26 -10 35 -14 17 -15 29 -3 48 10 15 22 15 48 1z m53 -20 c4
6 12 11 17 11 6 0 8 -4 5 -8 -3 -5 4 -16 16 -26 17 -15 18 -20 7 -27 -21 -13
-33 -11 -20 5 9 11 8 15 -6 20 -11 4 -22 1 -29 -8 -6 -9 -17 -16 -25 -16 -10
1 -8 4 4 11 12 7 16 17 12 32 -5 16 -4 18 3 8 7 -9 12 -10 16 -2z m16 -39 c0
-5 -5 -10 -12 -10 -6 0 -3 -7 8 -16 10 -8 14 -13 7 -10 -6 4 -15 1 -19 -5 -4
-7 -3 -9 3 -6 5 3 10 0 10 -8 0 -21 -10 -19 -25 6 -11 18 -16 19 -30 7 -15
-12 -16 -11 -3 4 7 10 17 16 21 13 5 -3 11 4 15 15 7 20 25 28 25 10z m40 -43
c0 -7 -9 -13 -20 -14 -16 -1 -18 1 -8 17 13 20 28 18 28 -3z m10 -37 c-9 -17
-21 -19 -70 -11 -3 1 2 5 10 11 9 5 19 5 27 -2 10 -8 12 -7 8 3 -4 10 2 15 15
16 17 2 18 -1 10 -17z m67 -82 c-15 -8 -16 -12 -5 -25 11 -13 11 -17 0 -21
-10 -3 -10 -7 -1 -18 9 -11 8 -19 -4 -38 -15 -23 -15 -25 6 -39 19 -12 20 -16
8 -31 -8 -9 -16 -14 -19 -11 -3 2 1 12 9 22 8 9 9 14 2 10 -6 -4 -14 -3 -18 3
-4 6 -11 7 -17 4 -6 -4 -6 1 1 14 13 25 -4 41 -22 23 -9 -9 -7 -11 8 -6 11 4
16 3 10 -2 -17 -14 -19 -47 -2 -40 7 3 14 -1 14 -8 0 -10 -5 -11 -17 -5 -12 6
-17 5 -17 -5 0 -7 5 -11 11 -9 15 5 42 -13 33 -22 -3 -4 -12 -2 -20 4 -10 9
-13 4 -13 -23 0 -18 5 -31 10 -28 5 4 6 1 1 -7 -5 -9 -4 -11 3 -6 8 5 10 1 6
-11 -5 -15 -4 -16 5 -3 9 13 11 13 11 0 0 -13 1 -13 10 0 9 13 10 13 10 0 0
-13 1 -13 10 0 8 13 11 13 22 1 9 -9 9 -12 1 -7 -15 8 -35 -27 -28 -47 3 -7
-2 -20 -12 -27 -15 -12 -16 -12 -5 0 17 20 15 33 -4 26 -13 -5 -14 -3 -6 7 7
8 7 18 2 27 -6 8 -10 11 -10 7 0 -4 -9 -3 -20 3 -11 6 -19 14 -19 18 1 4 0 9
-1 12 -7 19 -7 41 1 46 6 3 5 11 -2 20 -6 8 -8 14 -5 14 4 0 2 9 -4 19 -7 14
-7 22 0 26 15 9 1 27 -16 21 -7 -3 -16 0 -20 6 -4 6 -3 8 3 5 12 -7 26 20 18
33 -3 4 2 11 11 14 8 3 13 10 10 15 -3 5 8 14 24 21 16 7 35 19 41 26 7 8 15
12 18 8 3 -3 -2 -10 -12 -16z m-42 2 c3 -5 1 -10 -4 -10 -6 0 -11 5 -11 10 0
6 2 10 4 10 3 0 8 -4 11 -10z m75 -190 c8 -5 11 -12 7 -16 -3 -4 -15 -1 -24 7
-17 13 -17 13 -3 -4 8 -11 15 -28 17 -39 3 -18 1 -19 -12 -8 -11 9 -13 15 -5
20 8 5 6 9 -5 13 -9 4 -14 3 -10 -3 4 -6 3 -9 -2 -8 -4 2 -9 -1 -10 -7 -2 -5
2 -10 9 -10 6 0 13 -6 16 -13 5 -16 -18 -12 -37 7 -19 18 -23 41 -6 35 8 -3
18 4 25 15 12 23 18 25 40 11z m17 -191 c8 -8 2 -19 -22 -40 -35 -31 -45 -35
-45 -19 0 6 3 9 8 8 4 -2 17 7 30 20 12 12 18 22 12 22 -5 0 -10 5 -10 10 0
13 13 13 27 -1z m-2527 -1407 c0 -10 -22 -32 -32 -32 -5 0 -3 9 4 20 13 20 28
27 28 12z m50 -7 c8 -10 18 -12 29 -6 19 10 41 4 41 -11 0 -6 -3 -9 -6 -5 -3
3 -14 -3 -25 -14 -21 -21 -39 -25 -39 -9 0 6 6 10 14 10 8 0 18 4 21 10 3 5 0
7 -8 4 -8 -3 -18 0 -22 5 -3 6 -11 9 -16 6 -5 -4 -9 -1 -9 5 0 6 -5 8 -12 4
-7 -4 -8 -3 -4 4 10 16 21 15 36 -3z m219 -1 c-7 -8 -6 -14 1 -19 8 -5 8 -11
-1 -21 -13 -15 -34 -20 -24 -5 6 10 -11 24 -32 27 -7 1 -13 -3 -13 -9 0 -15
-13 0 -16 18 -2 11 5 14 22 11 13 -3 26 -1 29 4 3 5 14 8 25 7 14 -1 16 -5 9
-13z m86 -18 c0 -43 -8 -52 -26 -29 -12 15 -12 16 6 10 20 -7 20 -7 0 8 -11 9
-25 13 -32 11 -21 -8 -15 2 8 15 15 8 19 8 15 0 -4 -6 -3 -11 2 -11 6 0 12 7
16 15 8 23 11 18 11 -19z m80 12 c0 -26 -12 -48 -26 -48 -14 0 -11 18 7 45 20
30 20 30 19 3z m80 12 c-11 -17 5 -32 21 -19 8 6 14 8 14 3 0 -5 5 -2 10 6 8
13 10 13 10 1 0 -11 4 -10 16 5 8 10 13 14 10 8 -3 -7 0 -17 8 -23 11 -9 18
-8 30 4 9 9 16 13 16 9 0 -3 8 0 17 7 10 8 14 9 10 2 -4 -6 -3 -14 3 -18 6 -4
8 -11 5 -16 -4 -5 -1 -9 4 -9 6 0 11 -5 11 -11 0 -7 -7 -8 -17 -4 -28 11 -76
13 -94 4 -11 -6 -21 -4 -29 7 -12 13 -16 12 -35 -6 -20 -19 -23 -19 -36 -4
-12 15 -12 16 9 10 12 -4 22 -3 22 2 0 8 -6 10 -50 14 -25 3 -25 5 1 19 15 8
19 8 15 0 -4 -6 -3 -11 2 -11 6 0 12 7 16 15 3 8 8 15 11 15 4 0 3 -4 0 -10z
m322 3 c-4 -3 -3 -11 3 -17 6 -8 3 -12 -10 -12 -15 0 -16 4 -9 18 5 10 13 18
16 18 3 0 3 -3 0 -7z m200 -23 c-1 -10 -5 -17 -9 -14 -4 3 -5 12 -2 22 3 9 -2
4 -11 -12 -13 -22 -14 -30 -5 -36 7 -4 8 -10 3 -13 -9 -6 -59 18 -55 27 6 14
1 27 -8 21 -5 -3 -10 -2 -10 4 0 5 5 13 10 16 6 3 10 0 10 -7 0 -9 3 -9 10 2
7 11 10 11 10 2 0 -10 5 -10 22 2 25 18 37 13 35 -14z m542 8 c-9 -16 -24 -18
-45 -6 -6 4 -26 -4 -44 -17 -34 -25 -56 -33 -45 -16 3 6 -3 15 -12 21 -16 10
-16 10 4 5 12 -3 24 -1 27 4 4 6 13 8 21 4 8 -3 15 0 15 7 0 6 4 9 8 6 4 -2
14 -1 21 4 8 4 24 7 36 6 18 -1 21 -4 14 -18z m-1699 8 c0 -3 -4 -8 -10 -11
-5 -3 -10 -1 -10 4 0 6 5 11 10 11 6 0 10 -2 10 -4z m1044 -4 c2 -4 -9 -7 -24
-7 -16 -1 -27 2 -25 5 5 8 44 10 49 2z m176 -1 c0 -5 -8 -19 -18 -31 -14 -18
-19 -19 -19 -7 0 9 4 14 8 11 4 -2 10 5 14 16 7 21 15 27 15 11z m65 -9 c6 16
28 19 41 5 4 -3 12 -3 18 0 17 11 35 12 42 2 3 -5 11 -6 17 -2 18 11 36 12 42
3 3 -5 -4 -14 -15 -20 -11 -6 -18 -15 -15 -21 8 -12 -2 -12 -26 2 -13 7 -18
17 -15 27 5 13 2 12 -9 -2 -8 -11 -15 -24 -15 -30 0 -5 -7 -1 -16 10 -8 10
-13 14 -10 7 4 -6 1 -15 -5 -19 -8 -4 -9 -3 -5 4 7 11 -6 17 -28 13 -12 -2
-36 19 -36 32 0 6 6 2 14 -9 13 -17 15 -17 21 -2z m195 8 c0 -5 -5 -10 -11
-10 -5 0 -7 5 -4 10 3 6 8 10 11 10 2 0 4 -4 4 -10z m346 -8 c9 -12 13 -12 25
-1 15 15 62 22 53 8 -5 -8 10 -13 29 -10 4 0 7 -3 7 -9 0 -6 5 -9 11 -8 6 2
14 -4 16 -12 3 -9 1 -11 -4 -5 -10 13 -33 18 -33 7 0 -4 -9 -8 -20 -8 -11 0
-20 4 -20 9 0 4 -4 6 -9 2 -5 -3 -13 -1 -16 5 -5 8 -11 7 -21 -1 -11 -9 -15
-8 -20 6 -5 13 -9 14 -15 4 -9 -16 -37 -20 -45 -8 -17 28 42 48 62 21z m551
-12 c-15 -13 -24 -15 -29 -7 -10 16 -3 22 26 23 l26 2 -23 -18z m-1413 -6 c26
-10 18 -21 -14 -21 -31 0 -40 11 -17 20 6 3 13 6 14 6 1 1 8 -2 17 -5z m796
-15 c0 -14 -16 -11 -29 5 -10 12 -8 13 8 9 12 -3 21 -9 21 -14z m345 12 c3 -5
2 -12 -3 -15 -5 -3 -9 1 -9 9 0 17 3 19 12 6z"/>
<path d="M3213 3707 c-10 -22 -9 -24 15 -22 15 1 30 -3 34 -9 5 -7 8 -5 8 5 0
22 -24 31 -40 16 -10 -9 -11 -7 -5 11 8 29 1 28 -12 -1z"/>
<path d="M3164 3698 c10 -6 22 -6 26 -2 5 5 -3 10 -18 11 -22 1 -24 0 -8 -9z"/>
<path d="M3375 3550 c15 -16 34 -26 42 -23 7 3 13 2 12 -3 -3 -20 2 -34 12
-34 6 0 7 5 2 13 -4 6 -8 18 -9 25 -3 16 -23 42 -32 40 -4 0 -9 1 -12 2 -3 1
-13 3 -24 5 -15 3 -13 -2 9 -25z m28 5 c4 0 7 -4 8 -8 2 -18 -9 -16 -27 5 -11
13 -13 18 -4 12 8 -5 18 -9 23 -9z"/>
<path d="M3446 3402 c-3 -5 1 -9 9 -9 8 0 12 4 9 9 -3 4 -7 8 -9 8 -2 0 -6 -4
-9 -8z"/>
<path d="M3544 3402 c5 -9 3 -12 -5 -10 -8 1 -15 0 -16 -5 -2 -4 0 -7 5 -8 4
0 12 -5 18 -10 13 -10 12 26 -1 38 -4 5 -5 2 -1 -5z"/>
<path d="M3540 3296 c0 -2 8 -10 18 -17 15 -13 16 -12 3 4 -13 16 -21 21 -21
13z"/>
<path d="M3676 3141 c-4 -5 -2 -12 3 -15 5 -4 12 -2 15 3 4 5 2 12 -3 15 -5 4
-12 2 -15 -3z"/>
<path d="M3678 3243 c6 -2 9 -10 6 -15 -4 -7 -2 -8 4 -4 7 4 12 2 12 -4 0 -6
5 -8 11 -5 11 7 -18 35 -36 34 -5 0 -4 -3 3 -6z"/>
<path d="M3766 2891 c-3 -5 1 -14 8 -20 10 -9 16 -9 21 -1 4 6 1 9 -7 8 -7 -2
-12 3 -10 10 2 14 -4 16 -12 3z"/>
<path d="M3915 2740 c-4 -6 -16 -8 -28 -5 -16 5 -18 4 -8 -3 9 -7 10 -12 2
-16 -6 -4 -9 -12 -5 -17 3 -5 10 -7 15 -3 5 3 6 10 3 16 -5 8 -1 9 12 4 10 -4
15 -4 11 0 -4 4 -2 13 4 21 6 7 9 13 6 13 -3 0 -9 -5 -12 -10z"/>
<path d="M3910 2696 c0 -2 7 -7 16 -10 8 -3 12 -2 9 4 -6 10 -25 14 -25 6z"/>
<path d="M3784 3062 c-9 -5 -8 -10 2 -19 8 -8 15 -9 19 -3 3 6 1 10 -5 10 -6
0 -8 5 -5 10 7 12 4 12 -11 2z"/>
<path d="M3865 2842 c2 -3 0 -13 -6 -23 -14 -27 -4 -24 14 4 13 20 13 24 1 24
-8 0 -12 -2 -9 -5z"/>
<path d="M3919 2547 c6 -8 7 -18 3 -22 -4 -5 -1 -5 6 -1 10 6 10 11 1 22 -6 8
-14 14 -16 14 -3 0 0 -6 6 -13z"/>
<path d="M4081 2394 c6 -7 4 -16 -6 -24 -13 -11 -14 -10 -9 5 5 12 4 16 -3 12
-16 -10 -23 -46 -11 -54 7 -3 8 -1 4 5 -7 11 6 17 27 13 5 -1 5 4 1 10 -4 7
-2 10 7 7 8 -3 13 -14 11 -24 -2 -15 -1 -16 7 -4 6 9 6 18 0 26 -5 6 -7 19 -3
27 4 12 0 15 -15 14 -14 -1 -17 -5 -10 -13z"/>
<path d="M1890 638 c0 -9 5 -20 10 -23 13 -8 13 5 0 25 -8 13 -10 13 -10 -2z"/>
<path d="M2313 625 c0 -8 4 -12 9 -9 5 3 6 10 3 15 -9 13 -12 11 -12 -6z"/>
<path d="M2210 620 c0 -5 9 -8 20 -7 21 1 18 10 -5 13 -8 1 -15 -2 -15 -6z"/>
<path d="M2280 620 c-9 -6 -10 -10 -3 -10 6 0 15 5 18 10 8 12 4 12 -15 0z"/>
<path d="M3196 642 c-3 -5 1 -9 9 -9 8 0 12 4 9 9 -3 4 -7 8 -9 8 -2 0 -6 -4
-9 -8z"/>
<path d="M2875 629 c-4 -6 -5 -12 -2 -15 2 -3 7 2 10 11 7 17 1 20 -8 4z"/>
<path d="M2937 633 c-4 -3 -7 -11 -7 -17 0 -6 5 -5 12 2 6 6 9 14 7 17 -3 3
-9 2 -12 -2z"/>
<path d="M3317 623 c3 -7 6 -13 8 -13 2 0 5 6 8 13 3 8 -1 14 -8 14 -7 0 -11
-6 -8 -14z"/>
<path d="M3401 630 c-9 -5 -10 -10 -2 -14 6 -4 11 -2 11 5 0 8 4 8 15 -1 9 -7
17 -11 20 -9 9 9 -32 27 -44 19z"/>
<path d="M3273 4085 c0 -8 4 -12 9 -9 5 3 6 10 3 15 -9 13 -12 11 -12 -6z"/>
<path d="M3254 4022 c4 -3 14 -7 22 -8 9 -1 13 0 10 4 -4 3 -14 7 -22 8 -9 1
-13 0 -10 -4z"/>
<path d="M3233 3934 c16 -20 52 -30 41 -12 -4 5 -9 7 -12 4 -3 -3 -15 2 -26
11 -21 18 -21 18 -3 -3z"/>
<path d="M3194 3909 c-11 -18 14 -35 29 -20 10 10 8 11 -7 5 -16 -6 -18 -4
-13 9 7 19 2 23 -9 6z"/>
<path d="M3285 3899 c-4 -6 -14 -8 -24 -4 -13 5 -14 4 -3 -6 10 -11 15 -10 29
4 10 9 14 17 11 17 -4 0 -10 -5 -13 -11z"/>
<path d="M3359 3893 c-13 -16 -12 -17 4 -4 16 13 21 21 13 21 -2 0 -10 -8 -17
-17z"/>
<path d="M3510 3899 c0 -5 5 -7 10 -4 6 3 10 8 10 11 0 2 -4 4 -10 4 -5 0 -10
-5 -10 -11z"/>
<path d="M3413 3885 c0 -8 4 -15 9 -15 4 0 8 4 8 9 0 6 -4 12 -8 15 -5 3 -9
-1 -9 -9z"/>
<path d="M3155 3881 c-3 -5 -2 -12 3 -15 5 -3 9 1 9 9 0 17 -3 19 -12 6z"/>
<path d="M3300 3880 c-9 -6 -10 -10 -3 -10 6 0 15 5 18 10 8 12 4 12 -15 0z"/>
<path d="M3235 3870 c-3 -5 -1 -10 4 -10 6 0 11 5 11 10 0 6 -2 10 -4 10 -3 0
-8 -4 -11 -10z"/>
<path d="M3308 3853 c6 -2 10 -8 8 -12 -3 -4 4 -8 15 -8 10 -1 19 3 19 8 0 6
-4 8 -9 4 -5 -3 -12 -1 -16 5 -3 5 -12 10 -18 9 -9 0 -8 -2 1 -6z"/>
<path d="M3153 3833 c0 -7 5 -9 11 -5 6 3 21 7 34 8 39 2 34 11 -6 10 -23 0
-39 -6 -39 -13z"/>
<path d="M3250 3840 c0 -5 5 -10 10 -10 6 0 10 5 10 10 0 6 -4 10 -10 10 -5 0
-10 -4 -10 -10z"/>
<path d="M3365 3840 c-3 -6 1 -7 9 -4 18 7 21 14 7 14 -6 0 -13 -4 -16 -10z"/>
<path d="M3430 3838 c0 -4 4 -8 9 -8 6 0 12 4 15 8 3 5 -1 9 -9 9 -8 0 -15 -4
-15 -9z"/>
<path d="M3275 3820 c-4 -6 -4 -14 -1 -17 3 -4 6 -1 6 5 0 7 5 12 11 12 5 0 8
-3 5 -8 -2 -4 2 -15 9 -25 13 -17 14 -17 20 3 4 12 4 24 1 27 -3 4 -6 -2 -6
-12 0 -10 -3 -15 -7 -11 -5 4 -8 13 -8 19 0 15 -22 20 -30 7z"/>
<path d="M3373 3815 c-4 -5 -3 -7 2 -3 4 4 13 2 19 -5 6 -7 10 -10 9 -8 -2 2
1 9 7 15 6 8 3 12 -11 12 -11 0 -23 -5 -26 -11z"/>
<path d="M3350 3810 c0 -6 7 -13 15 -17 14 -5 14 -8 -1 -24 -10 -11 -15 -21
-13 -23 2 -2 12 6 21 18 16 22 15 24 -3 39 -10 9 -19 12 -19 7z"/>
<path d="M3463 3804 c9 -11 14 -23 11 -26 -3 -3 -1 -8 4 -12 18 -11 8 25 -12
41 -21 18 -21 18 -3 -3z"/>
<path d="M3145 3799 c-4 -6 -4 -13 -1 -16 3 -4 6 -1 6 6 0 7 5 9 12 5 7 -4 8
-3 4 4 -9 15 -13 15 -21 1z"/>
<path d="M3110 3780 c0 -5 5 -10 10 -10 6 0 10 5 10 10 0 6 -4 10 -10 10 -5 0
-10 -4 -10 -10z"/>
<path d="M3175 3779 c-4 -6 -4 -13 -1 -16 3 -4 6 -1 6 6 0 7 5 9 12 5 7 -4 8
-3 4 4 -9 15 -13 15 -21 1z"/>
<path d="M3337 3783 c-4 -3 -7 -11 -7 -17 0 -6 5 -5 12 2 6 6 9 14 7 17 -3 3
-9 2 -12 -2z"/>
<path d="M3510 3780 c0 -5 5 -10 11 -10 5 0 7 5 4 10 -3 6 -8 10 -11 10 -2 0
-4 -4 -4 -10z"/>
<path d="M3395 3771 c-8 -13 10 -22 29 -15 13 5 15 2 10 -12 -8 -20 -6 -19 15
8 11 15 9 16 -19 13 -18 -2 -28 0 -25 5 4 6 4 10 1 10 -3 0 -7 -4 -11 -9z"/>
<path d="M3145 3760 c-3 -5 -1 -10 4 -10 6 0 11 5 11 10 0 6 -2 10 -4 10 -3 0
-8 -4 -11 -10z"/>
<path d="M3382 3731 c7 -12 18 -17 27 -13 14 6 14 7 -1 10 -10 2 -18 8 -18 13
0 5 -5 9 -10 9 -6 0 -6 -7 2 -19z"/>
<path d="M3470 3741 c0 -6 4 -13 10 -16 6 -3 7 1 4 9 -7 18 -14 21 -14 7z"/>
<path d="M3442 3724 c-7 -8 -8 -14 -3 -14 10 0 25 19 20 25 -2 1 -10 -3 -17
-11z"/>
<path d="M3410 3701 c0 -5 5 -13 10 -16 6 -3 10 -2 10 4 0 5 -4 13 -10 16 -5
3 -10 2 -10 -4z"/>
<path d="M3450 3690 c-6 -12 -5 -23 5 -36 8 -11 15 -14 15 -7 0 6 -4 14 -10
18 -5 3 -7 12 -4 20 4 8 10 13 14 10 5 -3 11 -2 14 3 3 5 -2 9 -10 9 -8 0 -19
-8 -24 -17z"/>
<path d="M3508 3703 c7 -3 16 -2 19 1 4 3 -2 6 -13 5 -11 0 -14 -3 -6 -6z"/>
<path d="M3540 3706 c0 -2 8 -10 18 -17 15 -13 16 -12 3 4 -13 16 -21 21 -21
13z"/>
<path d="M3480 3680 c-9 -6 -10 -10 -3 -10 6 0 15 5 18 10 8 12 4 12 -15 0z"/>
<path d="M3554 3645 c0 -14 4 -25 8 -25 4 0 7 11 6 25 -3 33 -16 33 -14 0z"/>
<path d="M3484 3648 c2 -19 16 -38 26 -38 5 0 14 10 20 23 10 20 10 20 -3 5
-14 -18 -33 -25 -23 -9 3 5 -1 14 -8 20 -11 9 -14 9 -12 -1z"/>
<path d="M3630 3639 c0 -5 5 -7 10 -4 6 3 10 8 10 11 0 2 -4 4 -10 4 -5 0 -10
-5 -10 -11z"/>
<path d="M3178 3633 c6 -2 10 -8 7 -13 -3 -5 10 -29 29 -53 19 -25 31 -49 28
-53 -4 -5 1 -2 11 5 14 11 20 11 34 0 9 -8 14 -9 10 -3 -4 7 0 14 8 17 9 4 12
1 8 -9 -3 -7 0 -14 7 -14 10 0 10 -3 0 -15 -16 -19 -4 -33 13 -15 10 10 9 11
-2 5 -10 -6 -12 -4 -7 4 6 9 13 8 27 -5 10 -9 16 -21 13 -26 -3 -4 -2 -7 3 -6
4 2 9 -1 10 -5 1 -5 10 -15 20 -24 10 -8 13 -12 7 -9 -14 7 -14 -27 0 -37 7
-6 4 -7 -6 -3 -20 6 -48 -2 -48 -14 0 -4 12 -6 27 -4 40 4 47 -5 22 -32 -17
-18 -20 -27 -12 -35 12 -12 33 -4 33 11 0 5 -8 7 -17 4 -14 -4 -13 -2 2 7 25
16 45 20 45 9 0 -5 -6 -10 -12 -13 -10 -3 -10 -7 0 -20 8 -9 11 -20 8 -25 -3
-6 2 -16 11 -23 15 -12 16 -12 11 3 -4 9 0 24 7 35 17 22 19 33 4 33 -5 0 -8
-4 -4 -9 9 -15 -15 -25 -28 -12 -9 9 -8 11 5 6 24 -10 17 24 -11 46 -12 10
-22 20 -22 23 0 3 -2 13 -6 23 -4 10 -1 19 6 21 9 3 9 7 0 18 -9 10 -9 17 0
28 9 10 7 13 -6 13 -39 0 -43 3 -39 29 4 19 2 23 -7 15 -8 -6 -18 -6 -27 -1
-8 6 -11 10 -6 10 5 0 3 6 -3 13 -6 8 -8 17 -4 20 13 14 -28 45 -53 41 -25 -5
-31 5 -13 23 7 7 -1 10 -26 8 -20 -1 -38 2 -41 7 -3 4 -11 8 -17 7 -9 0 -8 -2
1 -6z m34 -32 c-4 -12 0 -11 19 4 18 15 20 16 10 3 -14 -19 -14 -19 34 -22 26
-2 45 -14 45 -29 0 -7 -4 -6 -10 3 -5 8 -10 12 -11 8 -1 -5 -3 -12 -4 -18 -1
-5 -3 -13 -4 -16 0 -4 -8 -1 -16 6 -8 7 -12 16 -9 21 3 5 1 9 -4 9 -16 0 -22
-13 -11 -27 19 -22 3 -15 -17 9 -10 12 -14 18 -7 15 6 -4 14 -3 18 3 6 9 -7
14 -27 11 -4 0 -12 7 -17 17 -7 14 -6 19 4 19 8 0 11 -7 7 -16z"/>
<path d="M3274 3564 c1 -8 4 -15 7 -16 2 -2 3 -1 2 1 -2 2 2 9 7 16 7 8 5 12
-4 12 -8 0 -13 -6 -12 -13z"/>
<path d="M3613 3606 c0 -8 5 -12 10 -9 7 4 8 -1 3 -13 -6 -15 -5 -17 5 -6 11
10 10 15 -2 28 -14 13 -16 13 -16 0z"/>
<path d="M3516 3595 c-11 -8 -18 -17 -15 -19 2 -2 15 4 28 15 27 22 15 26 -13
4z"/>
<path d="M3536 3581 c-3 -5 2 -15 12 -22 15 -13 16 -12 4 3 -11 14 -10 17 10
21 22 4 22 4 1 6 -12 0 -24 -3 -27 -8z"/>
<path d="M3651 3566 c-9 -10 -8 -15 2 -19 8 -3 13 3 13 14 0 23 0 23 -15 5z"/>
<path d="M3572 3554 c2 -8 7 -14 12 -14 5 1 13 -4 18 -12 8 -10 9 -10 5 2 -2
8 -10 14 -17 12 -8 -2 -10 3 -7 13 4 8 2 15 -4 15 -6 0 -9 -7 -7 -16z"/>
<path d="M3767 3539 c7 -7 15 -10 18 -7 3 3 -2 9 -12 12 -14 6 -15 5 -6 -5z"/>
<path d="M3830 3541 c0 -6 4 -13 10 -16 6 -3 7 1 4 9 -7 18 -14 21 -14 7z"/>
<path d="M3565 3520 c3 -5 1 -10 -4 -10 -6 0 -11 -5 -11 -11 0 -8 4 -8 14 0
16 14 50 1 59 -21 4 -9 6 -8 6 3 1 8 -15 23 -35 32 -19 10 -33 13 -29 7z"/>
<path d="M3646 3518 c3 -5 10 -6 15 -3 13 9 11 12 -6 12 -8 0 -12 -4 -9 -9z"/>
<path d="M3670 3501 c0 -6 4 -13 10 -16 6 -3 7 1 4 9 -7 18 -14 21 -14 7z"/>
<path d="M3650 3485 c0 -8 4 -15 10 -15 5 0 7 7 4 15 -4 8 -8 15 -10 15 -2 0
-4 -7 -4 -15z"/>
<path d="M3750 3486 c0 -2 7 -7 16 -10 8 -3 12 -2 9 4 -6 10 -25 14 -25 6z"/>
<path d="M3790 3486 c0 -2 7 -7 16 -10 8 -3 12 -2 9 4 -6 10 -25 14 -25 6z"/>
<path d="M3328 3466 c-12 -9 -14 -16 -7 -29 6 -9 15 -17 21 -17 6 0 5 7 -3 17
-13 15 -12 15 9 2 12 -8 17 -16 12 -17 -7 -3 -6 -10 2 -20 12 -15 11 -16 -5
-3 -10 8 -21 10 -25 5 -4 -5 -5 -8 -3 -7 2 2 10 -2 18 -9 11 -9 18 -8 31 5 9
10 11 17 5 17 -7 0 -10 9 -8 19 3 15 0 18 -12 14 -12 -5 -15 -2 -10 10 8 22
-4 28 -25 13z"/>
<path d="M3600 3472 c0 -6 -7 -18 -16 -26 -8 -9 -11 -16 -5 -16 13 0 35 39 27
48 -3 3 -6 0 -6 -6z"/>
<path d="M3680 3455 c-7 -9 -10 -18 -7 -21 3 -3 10 4 17 15 13 25 8 27 -10 6z"/>
<path d="M3755 3463 c3 -3 0 -11 -5 -18 -7 -8 -5 -12 4 -12 14 0 16 22 3 32
-4 3 -5 2 -2 -2z"/>
<path d="M3621 3451 c-11 -7 -9 -10 7 -15 12 -4 24 -16 27 -27 5 -14 12 -18
26 -14 13 4 19 2 17 -6 -2 -7 6 -14 17 -16 18 -3 18 -2 2 5 -10 4 -18 12 -18
17 0 6 -5 10 -12 10 -7 0 -22 10 -34 22 -19 19 -20 22 -5 26 13 4 13 5 2 6 -8
0 -21 -3 -29 -8z"/>
<path d="M3710 3422 c0 -12 22 -32 35 -32 5 0 2 5 -8 11 -9 6 -15 14 -12 20 4
5 1 9 -4 9 -6 0 -11 -4 -11 -8z"/>
<path d="M3833 3415 c0 -8 4 -12 9 -9 5 3 6 10 3 15 -9 13 -12 11 -12 -6z"/>
<path d="M3769 3403 c-13 -16 -12 -17 4 -4 9 7 17 15 17 17 0 8 -8 3 -21 -13z"/>
<path d="M3793 3387 c0 -8 6 -14 14 -14 9 0 10 4 2 14 -6 7 -12 13 -14 13 -1
0 -2 -6 -2 -13z"/>
<path d="M3682 3364 c10 -10 20 -16 22 -13 3 3 -5 11 -17 18 -21 13 -21 12 -5
-5z"/>
<path d="M3748 3373 c6 -2 18 -2 25 0 6 3 1 5 -13 5 -14 0 -19 -2 -12 -5z"/>
<path d="M3486 3338 c3 -5 10 -6 15 -3 13 9 11 12 -6 12 -8 0 -12 -4 -9 -9z"/>
<path d="M3739 3348 c-14 -47 -4 -63 26 -42 10 8 14 14 9 14 -6 0 -15 -5 -21
-11 -9 -9 -12 -7 -10 10 1 13 6 20 15 16 7 -2 10 0 7 5 -5 9 -24 14 -26 8z"/>
<path d="M3827 3339 c7 -7 15 -10 18 -7 3 3 -2 9 -12 12 -14 6 -15 5 -6 -5z"/>
<path d="M3936 3338 c3 -5 10 -6 15 -3 13 9 11 12 -6 12 -8 0 -12 -4 -9 -9z"/>
<path d="M3811 3314 c0 -11 3 -14 6 -6 3 7 2 16 -1 19 -3 4 -6 -2 -5 -13z"/>
<path d="M4000 3320 c-9 -6 -10 -10 -3 -10 6 0 15 5 18 10 8 12 4 12 -15 0z"/>
<path d="M3833 3305 c0 -8 10 -23 21 -32 21 -18 21 -18 4 2 -9 11 -17 24 -16
28 0 5 -2 11 -4 13 -3 2 -5 -3 -5 -11z"/>
<path d="M3790 3301 c0 -10 29 -36 34 -30 1 2 -6 12 -16 22 -10 9 -18 13 -18
8z"/>
<path d="M3860 3305 c0 -2 6 -8 13 -14 10 -8 14 -7 14 2 0 8 -6 14 -14 14 -7
0 -13 -1 -13 -2z"/>
<path d="M3755 3280 c-3 -5 -2 -10 4 -10 5 0 13 5 16 10 3 6 2 10 -4 10 -5 0
-13 -4 -16 -10z"/>
<path d="M3896 3273 c-6 -14 -5 -15 5 -6 7 7 10 15 7 18 -3 3 -9 -2 -12 -12z"/>
<path d="M3490 3259 c0 -6 -5 -7 -12 -3 -7 4 -8 3 -4 -5 4 -6 12 -8 18 -5 7 4
8 2 4 -4 -9 -16 7 -15 22 0 9 9 12 9 12 0 0 -22 2 -27 12 -40 8 -9 8 -16 0
-24 -11 -11 -17 0 -13 25 2 14 -17 7 -23 -9 -9 -22 -8 -26 6 -18 6 4 8 3 5 -3
-7 -11 22 -28 31 -18 3 3 2 5 -3 5 -4 0 -2 7 5 15 7 8 16 13 20 10 4 -2 6 7 5
22 0 17 -10 30 -30 41 -37 20 -55 23 -55 11z m77 -44 c0 -20 -4 -19 -17 5 -8
15 -8 18 3 14 8 -3 14 -11 14 -19z"/>
<path d="M3835 3249 c-4 -6 -5 -12 -2 -15 2 -3 7 2 10 11 7 17 1 20 -8 4z"/>
<path d="M3880 3235 c-7 -8 -17 -12 -24 -8 -6 3 -8 2 -3 -2 14 -16 43 -12 43
7 0 22 0 22 -16 3z"/>
<path d="M3452 3210 c12 -16 24 -30 26 -30 3 0 14 11 26 23 l22 24 -28 0 c-15
0 -28 -4 -28 -9 0 -5 4 -7 8 -4 5 3 9 -2 9 -11 0 -12 -6 -9 -22 10 -29 37 -41
34 -13 -3z"/>
<path d="M3788 3233 c6 -2 10 -9 7 -14 -4 -5 1 -6 10 -3 11 5 14 2 9 -10 -3
-9 -10 -13 -15 -10 -5 3 -6 -2 -2 -12 5 -14 8 -13 19 7 11 21 11 26 -3 37 -9
6 -22 12 -27 11 -6 0 -5 -3 2 -6z"/>
<path d="M3970 3219 c0 -5 5 -7 10 -4 6 3 10 8 10 11 0 2 -4 4 -10 4 -5 0 -10
-5 -10 -11z"/>
<path d="M3835 3200 c-3 -5 -1 -10 4 -10 6 0 11 5 11 10 0 6 -2 10 -4 10 -3 0
-8 -4 -11 -10z"/>
<path d="M3855 3180 c-3 -6 1 -7 9 -4 18 7 21 14 7 14 -6 0 -13 -4 -16 -10z"/>
<path d="M3954 3160 c0 -16 3 -27 6 -25 8 5 6 42 -1 50 -3 2 -5 -8 -5 -25z"/>
<path d="M3488 3151 c9 -11 23 -27 30 -36 8 -9 21 -13 32 -10 11 3 29 0 42 -8
13 -8 31 -13 41 -12 14 3 16 1 7 -10 -7 -8 -9 -19 -5 -26 6 -8 2 -8 -14 1 -12
6 -19 15 -16 19 10 16 -28 22 -42 6 -7 -8 -10 -12 -6 -10 4 3 13 -5 20 -17 7
-13 12 -17 13 -10 0 8 5 10 13 5 23 -14 50 -14 44 1 -3 8 -3 17 0 20 8 8 33
-13 33 -27 0 -6 -7 -2 -16 9 -8 10 -13 13 -9 7 13 -27 14 -56 1 -74 -7 -10
-16 -16 -20 -11 -4 4 -6 0 -4 -8 2 -9 -4 -15 -14 -15 -9 0 -20 -4 -25 -9 -4
-5 -3 -6 4 -2 7 4 17 -2 22 -13 6 -11 20 -23 31 -26 11 -4 18 -11 15 -16 -4
-5 -1 -9 6 -9 8 0 8 -4 -1 -15 -10 -11 -10 -19 -2 -27 6 -6 8 -16 6 -23 -3 -6
2 -12 10 -12 8 0 14 7 13 16 -1 9 1 16 5 16 4 0 14 9 23 20 16 20 16 20 6 -1
-6 -12 -7 -24 -4 -28 3 -3 1 -6 -5 -6 -7 0 -12 5 -12 12 0 6 -3 9 -6 6 -3 -4
0 -17 7 -30 17 -30 20 -48 8 -48 -5 0 -9 -6 -9 -12 1 -7 9 -2 20 11 11 12 17
28 13 34 -3 5 -1 7 5 4 5 -4 8 -17 4 -29 -4 -16 -2 -20 10 -16 14 6 16 -3 9
-45 0 -5 -7 -5 -13 -1 -7 4 -5 -2 5 -14 18 -20 15 -48 -4 -37 -5 4 -9 1 -9 -4
0 -11 19 -15 52 -12 22 3 32 -15 12 -23 -8 -3 -12 -10 -9 -16 4 -6 11 -8 16
-5 13 9 11 -9 -3 -25 -11 -13 -11 -13 1 -3 11 10 17 9 27 -4 14 -20 7 -46 -10
-37 -6 3 -1 -3 11 -14 12 -11 19 -23 15 -28 -4 -5 1 -2 11 5 14 11 17 11 17 1
0 -8 2 -11 5 -8 8 8 -6 38 -17 38 -5 0 -6 -5 -2 -12 4 -7 3 -8 -4 -4 -6 4 -9
13 -6 21 4 8 10 13 14 10 5 -3 11 -1 14 4 4 5 2 12 -4 16 -6 4 -8 11 -5 16 4
5 2 9 -4 9 -5 0 -8 8 -6 18 3 22 -13 42 -30 36 -22 -9 -28 16 -9 37 15 17 13
23 -7 21 -10 -2 -37 31 -41 48 -2 8 -16 34 -31 58 -15 23 -24 42 -18 42 10 0
10 18 -1 36 -8 12 -6 34 5 50 11 19 -5 25 -24 8 -23 -20 -43 -10 -29 15 5 10
6 21 3 25 -3 3 -1 6 4 6 9 0 11 27 3 38 -4 4 -7 21 -9 42 0 11 -7 19 -13 18
-7 -2 -12 5 -12 14 1 10 -2 16 -6 13 -5 -3 -12 -1 -15 5 -5 8 -11 8 -20 0 -9
-8 -15 -6 -20 7 -5 10 -7 22 -6 27 1 5 -4 4 -11 -2 -11 -8 -24 -5 -57 14 -52
29 -67 31 -43 5z m52 -21 c8 -5 11 -12 8 -16 -4 -3 -14 1 -23 10 -18 17 -9 21
15 6z m48 -75 c-3 -3 -9 2 -12 12 -6 14 -5 15 5 6 7 -7 10 -15 7 -18z m99 -32
c-4 -3 -1 -13 6 -22 11 -14 10 -14 -5 -2 -16 12 -16 31 -1 31 4 0 3 -3 0 -7z
m-3 -41 c3 -5 -1 -9 -9 -9 -8 0 -12 4 -9 9 3 4 7 8 9 8 2 0 6 -4 9 -8z m1 -30
c-6 -4 -17 -16 -25 -26 -14 -18 -13 -19 2 -13 9 3 22 0 28 -8 6 -8 19 -11 28
-8 15 4 15 3 2 -6 -12 -9 -12 -13 -2 -19 9 -6 5 -12 -14 -21 -15 -6 -29 -9
-32 -6 -3 3 0 5 6 5 19 0 14 18 -10 43 -13 12 -22 25 -20 30 1 4 -3 7 -8 7
-20 0 13 26 34 28 11 0 16 -2 11 -6z m55 -152 c0 -5 -5 -10 -11 -10 -5 0 -7 5
-4 10 3 6 8 10 11 10 2 0 4 -4 4 -10z m92 -124 c7 4 5 -2 -5 -12 -17 -18 -18
-18 -40 6 -12 13 -14 18 -4 11 17 -13 24 -4 10 15 -5 5 0 1 9 -9 10 -11 23
-15 30 -11z m33 -84 c-1 -9 4 -27 12 -40 13 -22 13 -22 -6 -10 -11 6 -18 15
-15 19 2 4 0 10 -6 14 -6 4 -8 11 -5 16 4 5 0 9 -7 9 -10 0 -9 3 2 9 18 12 29
5 25 -17z"/>
<path d="M3685 2886 c10 -14 19 -26 22 -26 7 0 -17 39 -28 46 -6 3 -3 -5 6
-20z"/>
<path d="M3838 3157 c12 -7 19 -17 15 -22 -4 -4 -2 -5 6 0 12 7 11 10 -4 22
-11 7 -24 13 -29 13 -6 -1 -1 -6 12 -13z"/>
<path d="M3890 3136 c0 -2 7 -9 15 -16 9 -7 15 -8 15 -2 0 5 -7 12 -15 16 -8
3 -15 4 -15 2z"/>
<path d="M3830 3121 c0 -5 5 -13 10 -16 6 -3 10 -2 10 4 0 5 -4 13 -10 16 -5
3 -10 2 -10 -4z"/>
<path d="M3871 3114 c0 -11 3 -14 6 -6 3 7 2 16 -1 19 -3 4 -6 -2 -5 -13z"/>
<path d="M4026 3118 c3 -5 10 -6 15 -3 13 9 11 12 -6 12 -8 0 -12 -4 -9 -9z"/>
<path d="M4076 3122 c-3 -5 1 -9 9 -9 8 0 12 4 9 9 -3 4 -7 8 -9 8 -2 0 -6 -4
-9 -8z"/>
<path d="M3950 3116 c0 -2 8 -10 18 -17 15 -13 16 -12 3 4 -13 16 -21 21 -21
13z"/>
<path d="M3931 3093 c-1 -17 16 -25 25 -12 4 7 3 9 -4 5 -5 -3 -13 0 -15 6 -4
9 -6 10 -6 1z"/>
<path d="M3996 3087 c3 -10 9 -15 12 -12 3 3 0 11 -7 18 -10 9 -11 8 -5 -6z"/>
<path d="M4030 3080 c0 -5 5 -10 11 -10 5 0 7 5 4 10 -3 6 -8 10 -11 10 -2 0
-4 -4 -4 -10z"/>
<path d="M3980 3066 c0 -2 8 -10 18 -17 15 -13 16 -12 3 4 -13 16 -21 21 -21
13z"/>
<path d="M3921 3034 c0 -11 3 -14 6 -6 3 7 2 16 -1 19 -3 4 -6 -2 -5 -13z"/>
<path d="M4030 3022 c0 -5 7 -9 15 -9 8 0 12 4 9 9 -3 4 -9 8 -15 8 -5 0 -9
-4 -9 -8z"/>
<path d="M4074 3022 c4 -3 14 -7 22 -8 9 -1 13 0 10 4 -4 3 -14 7 -22 8 -9 1
-13 0 -10 -4z"/>
<path d="M3970 3010 c-9 -6 -10 -10 -3 -10 6 0 15 5 18 10 8 12 4 12 -15 0z"/>
<path d="M3930 3000 c0 -5 5 -10 10 -10 6 0 10 5 10 10 0 6 -4 10 -10 10 -5 0
-10 -4 -10 -10z"/>
<path d="M3910 2995 c0 -5 5 -17 10 -25 5 -8 10 -10 10 -5 0 6 -5 17 -10 25
-5 8 -10 11 -10 5z"/>
<path d="M1027 2975 c3 -8 9 -12 14 -9 12 7 11 11 -5 17 -10 4 -13 1 -9 -8z"/>
<path d="M3990 2983 c0 -5 5 -15 10 -23 7 -12 9 -10 7 8 -1 19 -17 33 -17 15z"/>
<path d="M1073 2969 c15 -9 16 -13 5 -27 -10 -12 -7 -12 15 2 29 20 35 29 13
20 -8 -3 -17 -1 -21 5 -3 6 -12 11 -18 11 -7 0 -4 -5 6 -11z"/>
<path d="M3892 2958 c2 -6 10 -13 16 -14 7 -1 8 0 2 3 -5 2 -8 9 -4 14 3 5 0
9 -6 9 -7 0 -10 -5 -8 -12z"/>
<path d="M4100 2965 c0 -2 6 -8 13 -14 10 -8 14 -7 14 2 0 8 -6 14 -14 14 -7
0 -13 -1 -13 -2z"/>
<path d="M1130 2941 c0 -7 -4 -9 -10 -6 -5 3 -10 1 -10 -4 0 -6 4 -11 9 -11
13 0 25 20 17 27 -3 4 -6 1 -6 -6z"/>
<path d="M3927 2935 c-4 -8 -2 -17 4 -21 12 -7 39 14 39 30 0 6 -5 3 -11 -6
-5 -10 -15 -18 -21 -18 -7 0 -6 5 2 15 7 9 8 15 2 15 -5 0 -12 -7 -15 -15z"/>
<path d="M4013 2918 c0 -13 1 -17 4 -10 3 6 10 9 16 5 7 -4 6 1 -2 10 -17 21
-17 21 -18 -5z"/>
<path d="M4073 2927 c0 -8 6 -14 14 -14 9 0 10 4 2 14 -6 7 -12 13 -14 13 -1
0 -2 -6 -2 -13z"/>
<path d="M3981 2914 c0 -11 3 -14 6 -6 3 7 2 16 -1 19 -3 4 -6 -2 -5 -13z"/>
<path d="M4053 2885 c0 -8 3 -13 5 -10 3 3 15 -3 26 -12 15 -13 14 -10 -3 10
-29 32 -28 31 -28 12z"/>
<path d="M4006 2881 c-3 -5 1 -11 9 -14 9 -4 12 -1 8 9 -6 16 -10 17 -17 5z"/>
<path d="M3990 2845 c-7 -8 -19 -15 -26 -15 -13 0 -19 -13 -15 -34 1 -5 -5 -6
-14 -2 -9 3 -13 2 -10 -4 8 -14 18 -13 41 5 19 15 19 15 -1 9 -13 -5 -8 4 15
24 19 17 32 31 29 32 -4 0 -12 -7 -19 -15z"/>
<path d="M4051 2844 c0 -11 3 -14 6 -6 3 7 2 16 -1 19 -3 4 -6 -2 -5 -13z"/>
<path d="M4020 2840 c-9 -6 -10 -10 -3 -10 6 0 15 5 18 10 8 12 4 12 -15 0z"/>
<path d="M4065 2820 c-3 -6 1 -7 9 -4 18 7 21 14 7 14 -6 0 -13 -4 -16 -10z"/>
<path d="M3990 2810 c0 -5 7 -7 15 -4 8 4 15 8 15 10 0 2 -7 4 -15 4 -8 0 -15
-4 -15 -10z"/>
<path d="M4035 2809 c-4 -6 -5 -12 -2 -15 2 -3 7 2 10 11 7 17 1 20 -8 4z"/>
<path d="M4099 2818 c-5 -18 -6 -38 -1 -34 7 8 12 36 6 36 -2 0 -4 -1 -5 -2z"/>
<path d="M4010 2783 c5 -2 8 -8 5 -13 -3 -4 4 -19 16 -31 l20 -24 -15 25 c-8
14 -15 29 -15 35 0 5 -4 10 -11 12 -6 1 -7 0 0 -4z"/>
<path d="M4045 2780 c-10 -16 14 -50 30 -44 8 4 15 8 15 11 0 3 -7 2 -16 -1
-12 -5 -15 -2 -10 9 4 11 2 14 -6 9 -8 -5 -9 -2 -5 9 7 18 2 23 -8 7z"/>
<path d="M3990 2750 c0 -5 5 -10 11 -10 5 0 7 5 4 10 -3 6 -8 10 -11 10 -2 0
-4 -4 -4 -10z"/>
<path d="M4135 2730 c-4 -6 -12 -7 -18 -4 -7 4 -8 3 -4 -1 13 -15 34 -14 34 1
0 17 -4 18 -12 4z"/>
<path d="M3755 2720 c3 -5 8 -10 11 -10 2 0 4 5 4 10 0 6 -5 10 -11 10 -5 0
-7 -4 -4 -10z"/>
<path d="M4060 2716 c0 -2 7 -7 16 -10 8 -3 12 -2 9 4 -6 10 -25 14 -25 6z"/>
<path d="M4035 2689 c-9 -28 10 -48 28 -30 10 12 9 13 -7 7 -15 -5 -17 -2 -12
19 8 30 0 34 -9 4z"/>
<path d="M4135 2690 c-4 -6 -15 -8 -26 -5 -30 10 -22 -2 9 -13 24 -8 28 -7 28
9 0 22 -2 23 -11 9z"/>
<path d="M4080 2655 c-9 -10 -9 -15 -1 -15 6 0 11 5 11 11 0 5 5 7 12 3 7 -4
8 -3 4 4 -9 15 -11 15 -26 -3z"/>
<path d="M4146 2640 c13 -18 13 -59 0 -80 -7 -12 -7 -13 5 -2 19 18 19 69 0
84 -14 11 -14 11 -5 -2z"/>
<path d="M4057 2629 c7 -7 15 -10 18 -7 3 3 -2 9 -12 12 -14 6 -15 5 -6 -5z"/>
<path d="M4096 2631 c-3 -5 5 -16 19 -25 14 -9 25 -12 25 -6 0 5 -5 10 -11 10
-5 0 -7 4 -4 10 4 6 -1 7 -11 3 -12 -4 -15 -3 -10 5 4 7 5 12 2 12 -3 0 -7 -4
-10 -9z"/>
<path d="M4087 2599 c7 -7 15 -10 18 -7 3 3 -2 9 -12 12 -14 6 -15 5 -6 -5z"/>
<path d="M4216 2598 c3 -4 11 -5 19 -1 21 7 19 12 -4 10 -11 0 -18 -5 -15 -9z"/>
<path d="M4290 2599 c0 -5 5 -7 10 -4 6 3 10 8 10 11 0 2 -4 4 -10 4 -5 0 -10
-5 -10 -11z"/>
<path d="M4185 2580 c-3 -6 1 -7 9 -4 18 7 21 14 7 14 -6 0 -13 -4 -16 -10z"/>
<path d="M4273 2565 c0 -8 4 -15 9 -15 4 0 8 4 8 9 0 6 -4 12 -8 15 -5 3 -9
-1 -9 -9z"/>
<path d="M4231 2547 c-8 -10 -7 -14 2 -14 8 0 14 6 14 14 0 7 -1 13 -2 13 -2
0 -8 -6 -14 -13z"/>
<path d="M4110 2540 c-13 -8 -12 -10 3 -10 9 0 17 5 17 10 0 12 -1 12 -20 0z"/>
<path d="M4166 2517 c3 -10 9 -15 12 -12 3 3 0 11 -7 18 -10 9 -11 8 -5 -6z"/>
<path d="M4275 2520 c3 -5 8 -10 11 -10 2 0 4 5 4 10 0 6 -5 10 -11 10 -5 0
-7 -4 -4 -10z"/>
<path d="M4320 2520 c-9 -6 -10 -10 -3 -10 6 0 15 5 18 10 8 12 4 12 -15 0z"/>
<path d="M4195 2509 c-4 -6 -5 -12 -2 -15 2 -3 7 2 10 11 7 17 1 20 -8 4z"/>
<path d="M4211 2487 c-8 -10 -7 -14 2 -14 8 0 14 6 14 14 0 7 -1 13 -2 13 -2
0 -8 -6 -14 -13z"/>
<path d="M3910 2479 c0 -5 5 -7 10 -4 6 3 10 8 10 11 0 2 -4 4 -10 4 -5 0 -10
-5 -10 -11z"/>
<path d="M4150 2478 c0 -4 4 -8 9 -8 6 0 12 4 15 8 3 5 -1 9 -9 9 -8 0 -15 -4
-15 -9z"/>
<path d="M4192 2451 c-11 -7 -10 -9 3 -14 9 -4 14 -3 10 2 -3 5 1 12 7 14 7 3
9 6 3 6 -5 0 -16 -3 -23 -8z"/>
<path d="M3919 2438 c11 -15 11 -18 0 -18 -8 0 -4 -7 9 -16 12 -8 22 -21 21
-27 0 -9 -2 -8 -6 1 -2 6 -10 9 -15 6 -7 -5 -8 -2 -3 6 5 9 4 11 -4 6 -15 -10
-9 -31 10 -31 8 0 14 -10 15 -21 2 -35 13 -45 35 -34 15 9 17 15 9 30 -6 11
-7 20 -3 20 4 1 -3 10 -16 21 -23 19 -23 20 -6 39 17 19 17 19 -6 15 -12 -3
-30 1 -38 8 -14 11 -14 10 -2 -5z m55 -79 c-3 -5 -10 -7 -15 -3 -5 3 -7 10 -3
15 3 5 10 7 15 3 5 -3 7 -10 3 -15z m13 -34 c4 -4 3 -5 -4 -2 -6 4 -13 2 -15
-5 -3 -8 -6 -6 -10 4 -7 17 15 19 29 3z"/>
<path d="M4155 2429 c-4 -6 -5 -12 -2 -15 2 -3 7 2 10 11 7 17 1 20 -8 4z"/>
<path d="M4166 2405 c-9 -13 -16 -28 -16 -32 0 -4 8 4 18 20 10 15 22 24 27
20 4 -5 5 -2 1 5 -10 16 -11 16 -30 -13z"/>
<path d="M4214 2419 c-4 -7 -3 -9 4 -5 5 3 13 0 15 -6 4 -9 6 -10 6 -1 1 17
-16 25 -25 12z"/>
<path d="M4280 2400 c-9 -6 -10 -10 -3 -10 6 0 15 5 18 10 8 12 4 12 -15 0z"/>
<path d="M4235 2360 c3 -4 -1 -10 -8 -13 -21 -8 -14 -52 9 -54 14 -2 15 -1 4
5 -8 4 -16 15 -16 25 -2 13 3 16 20 12 17 -5 18 -4 6 4 -14 10 -7 16 15 11 6
-1 6 2 2 6 -10 11 -38 14 -32 4z"/>
<path d="M4340 2366 c0 -2 8 -10 18 -17 15 -13 16 -12 3 4 -13 16 -21 21 -21
13z"/>
<path d="M4180 2320 c0 -5 5 -10 10 -10 6 0 10 5 10 10 0 6 -4 10 -10 10 -5 0
-10 -4 -10 -10z"/>
<path d="M4260 2320 c-9 -6 -10 -10 -3 -10 6 0 15 5 18 10 8 12 4 12 -15 0z"/>
<path d="M4353 2313 c0 -9 4 -10 14 -2 7 6 13 12 13 14 0 1 -6 2 -13 2 -8 0
-14 -6 -14 -14z"/>
<path d="M4310 2306 c0 -2 7 -7 16 -10 8 -3 12 -2 9 4 -6 10 -25 14 -25 6z"/>
<path d="M4430 2301 c0 -6 4 -13 10 -16 6 -3 7 1 4 9 -7 18 -14 21 -14 7z"/>
<path d="M4202 2284 c10 -10 20 -16 22 -13 3 3 -5 11 -17 18 -21 13 -21 12 -5
-5z"/>
<path d="M4299 2273 c-13 -16 -12 -17 4 -4 9 7 17 15 17 17 0 8 -8 3 -21 -13z"/>
<path d="M3996 2261 c-3 -5 2 -15 12 -22 15 -12 16 -12 5 2 -7 9 -10 19 -6 22
3 4 4 7 0 7 -3 0 -8 -4 -11 -9z"/>
<path d="M4230 2255 c0 -5 5 -17 10 -25 5 -8 10 -10 10 -5 0 6 -5 17 -10 25
-5 8 -10 11 -10 5z"/>
<path d="M4284 2239 c-4 -7 -3 -9 4 -5 5 3 13 0 15 -6 4 -9 6 -10 6 -1 1 17
-16 25 -25 12z"/>
<path d="M4339 2233 c-12 -16 -12 -17 2 -6 9 7 20 9 24 5 5 -4 5 -1 1 6 -9 16
-11 15 -27 -5z"/>
<path d="M4386 2238 c3 -5 10 -6 15 -3 13 9 11 12 -6 12 -8 0 -12 -4 -9 -9z"/>
<path d="M4209 2207 c-7 -15 -16 -24 -20 -21 -5 3 -9 0 -9 -5 0 -6 4 -11 9
-11 11 0 44 50 37 57 -3 3 -11 -6 -17 -20z"/>
<path d="M4240 2200 c-8 -5 -12 -11 -10 -14 3 -2 14 2 24 10 22 15 10 19 -14
4z"/>
<path d="M4355 2200 c-3 -5 -1 -10 4 -10 6 0 11 5 11 10 0 6 -2 10 -4 10 -3 0
-8 -4 -11 -10z"/>
<path d="M4390 2200 c0 -5 5 -10 11 -10 5 0 7 5 4 10 -3 6 -8 10 -11 10 -2 0
-4 -4 -4 -10z"/>
<path d="M4017 2193 c-3 -5 2 -19 12 -32 17 -23 18 -23 16 -2 -2 25 -20 47
-28 34z"/>
<path d="M4255 2180 c-3 -6 1 -7 9 -4 18 7 21 14 7 14 -6 0 -13 -4 -16 -10z"/>
<path d="M4210 2160 c0 -5 5 -10 10 -10 6 0 10 5 10 10 0 6 -4 10 -10 10 -5 0
-10 -4 -10 -10z"/>
<path d="M4274 2155 c1 -8 6 -18 11 -22 4 -5 5 -2 0 6 -6 11 -4 13 8 8 23 -9
21 0 -2 13 -15 7 -19 7 -17 -5z"/>
<path d="M4250 2120 c0 -5 5 -10 10 -10 6 0 10 5 10 10 0 6 -4 10 -10 10 -5 0
-10 -4 -10 -10z"/>
<path d="M4310 2119 c0 -5 5 -7 10 -4 6 3 10 8 10 11 0 2 -4 4 -10 4 -5 0 -10
-5 -10 -11z"/>
<path d="M4339 2113 c-13 -16 -12 -17 4 -4 16 13 21 21 13 21 -2 0 -10 -8 -17
-17z"/>
<path d="M4181 2101 c-8 -5 -9 -11 -3 -15 5 -3 12 1 16 9 6 17 6 18 -13 6z"/>
<path d="M4273 2095 c-3 -9 -3 -18 -1 -21 3 -3 8 4 11 16 6 23 -1 27 -10 5z"/>
<path d="M4406 2098 c3 -5 10 -6 15 -3 13 9 11 12 -6 12 -8 0 -12 -4 -9 -9z"/>
<path d="M4299 2098 c-5 -18 -6 -38 -1 -34 7 8 12 36 6 36 -2 0 -4 -1 -5 -2z"/>
<path d="M4200 2080 c0 -5 5 -10 11 -10 5 0 7 5 4 10 -3 6 -8 10 -11 10 -2 0
-4 -4 -4 -10z"/>
<path d="M4333 2073 c0 -9 4 -10 14 -2 7 6 13 12 13 14 0 1 -6 2 -13 2 -8 0
-14 -6 -14 -14z"/>
<path d="M4233 2053 c0 -11 7 -20 14 -20 10 0 10 4 1 16 -7 9 -13 18 -15 20
-1 2 -1 -5 0 -16z"/>
<path d="M4290 2039 c0 -8 56 -6 64 2 3 3 -10 5 -29 5 -19 0 -35 -3 -35 -7z"/>
<path d="M4176 2005 c-16 -14 -25 -25 -20 -25 12 1 58 39 52 45 -2 2 -17 -7
-32 -20z"/>
<path d="M4370 2020 c0 -5 5 -10 11 -10 5 0 7 5 4 10 -3 6 -8 10 -11 10 -2 0
-4 -4 -4 -10z"/>
<path d="M4416 2018 c3 -4 11 -5 19 -1 21 7 19 12 -4 10 -11 0 -18 -5 -15 -9z"/>
<path d="M4220 2005 c0 -8 4 -15 10 -15 5 0 7 7 4 15 -4 8 -8 15 -10 15 -2 0
-4 -7 -4 -15z"/>
<path d="M4517 2013 c-10 -9 -9 -23 1 -23 5 0 9 7 9 15 0 17 -1 18 -10 8z"/>
<path d="M4326 1998 c3 -5 10 -6 15 -3 13 9 11 12 -6 12 -8 0 -12 -4 -9 -9z"/>
<path d="M4279 1995 c-1 -3 -2 -13 -3 -22 -1 -10 -4 -23 -8 -29 -4 -6 -2 -11
5 -11 8 0 13 14 13 34 0 29 -4 43 -7 28z"/>
<path d="M4190 1980 c0 -5 5 -10 10 -10 6 0 10 5 10 10 0 6 -4 10 -10 10 -5 0
-10 -4 -10 -10z"/>
<path d="M4374 1956 c1 -8 5 -18 8 -22 4 -3 5 1 4 10 -1 8 -5 18 -8 22 -4 3
-5 -1 -4 -10z"/>
<path d="M4210 1922 c0 -4 10 -9 22 -9 18 -2 20 0 8 7 -18 12 -30 13 -30 2z"/>
<path d="M4275 1871 c-3 -5 -2 -12 3 -15 5 -3 9 1 9 9 0 17 -3 19 -12 6z"/>
<path d="M4218 1848 c12 -16 35 -18 48 -6 3 4 -2 5 -13 4 -10 -2 -25 2 -33 8
-13 9 -13 9 -2 -6z"/>
<path d="M4276 1807 c3 -10 9 -15 12 -12 3 3 0 11 -7 18 -10 9 -11 8 -5 -6z"/>
<path d="M721 656 c-9 -11 -9 -16 1 -22 7 -4 10 -4 6 1 -4 4 -3 14 3 22 6 7 9
13 6 13 -2 0 -10 -6 -16 -14z"/>
<path d="M959 653 c-13 -16 -12 -17 4 -4 9 7 17 15 17 17 0 8 -8 3 -21 -13z"/>
<path d="M1134 663 c4 -7 2 -13 -3 -13 -6 0 -11 -5 -11 -11 0 -5 4 -8 9 -5 5
4 12 0 15 -6 2 -7 4 -3 2 9 -1 12 -6 26 -11 30 -4 5 -5 2 -1 -4z"/>
<path d="M1170 650 c-6 -11 -8 -20 -6 -20 3 0 10 9 16 20 6 11 8 20 6 20 -3 0
-10 -9 -16 -20z"/>
<path d="M1219 668 c-6 -22 -5 -38 3 -38 6 0 7 7 4 16 -4 12 -2 15 9 10 8 -3
15 -1 15 4 0 8 -28 15 -31 8z"/>
<path d="M1330 660 c0 -5 5 -10 11 -10 5 0 7 5 4 10 -3 6 -8 10 -11 10 -2 0
-4 -4 -4 -10z"/>
<path d="M1417 645 c-22 -31 -41 -78 -27 -70 6 3 10 12 10 20 0 7 12 27 26 44
14 17 22 31 17 31 -4 0 -16 -11 -26 -25z"/>
<path d="M1467 656 c-18 -14 -24 -32 -7 -21 6 3 10 1 10 -4 0 -6 5 -11 11 -11
8 0 8 4 0 14 -9 11 -9 15 1 19 7 2 11 7 8 10 -3 3 -13 0 -23 -7z"/>
<path d="M3270 656 c7 -7 13 -7 20 0 6 6 3 10 -10 10 -13 0 -16 -4 -10 -10z"/>
<path d="M3450 660 c0 -5 5 -10 11 -10 5 0 7 5 4 10 -3 6 -8 10 -11 10 -2 0
-4 -4 -4 -10z"/>
<path d="M3715 660 c3 -5 8 -10 11 -10 2 0 4 5 4 10 0 6 -5 10 -11 10 -5 0 -7
-4 -4 -10z"/>
<path d="M4160 656 c7 -7 13 -7 20 0 6 6 3 10 -10 10 -13 0 -16 -4 -10 -10z"/>
<path d="M4218 658 c5 -5 16 -8 23 -6 8 3 3 7 -10 11 -17 4 -21 3 -13 -5z"/>
<path d="M753 646 c0 -15 22 -15 34 0 4 5 4 6 -1 2 -5 -4 -14 -3 -21 2 -8 7
-12 5 -12 -4z"/>
<path d="M814 640 c0 -13 4 -16 10 -10 7 7 7 13 0 20 -6 6 -10 3 -10 -10z"/>
<path d="M855 649 c-4 -6 -5 -12 -2 -15 2 -3 7 2 10 11 7 17 1 20 -8 4z"/>
<path d="M1045 643 c-5 -10 -9 -20 -9 -23 -1 -3 -4 -10 -8 -16 -4 -6 -1 -11 6
-11 8 0 13 7 11 16 -1 9 2 22 8 29 5 7 8 15 5 18 -3 3 -9 -3 -13 -13z"/>
<path d="M4268 653 c6 -2 18 -2 25 0 6 3 1 5 -13 5 -14 0 -19 -2 -12 -5z"/>
<path d="M4310 656 c0 -2 8 -10 18 -17 15 -13 16 -12 3 4 -13 16 -21 21 -21
13z"/>
<path d="M676 642 c-3 -5 1 -9 9 -9 8 0 12 4 9 9 -3 4 -7 8 -9 8 -2 0 -6 -4
-9 -8z"/>
<path d="M975 640 c-3 -5 -1 -10 4 -10 6 0 11 5 11 10 0 6 -2 10 -4 10 -3 0
-8 -4 -11 -10z"/>
<path d="M1267 639 c7 -7 15 -10 18 -7 3 3 -2 9 -12 12 -14 6 -15 5 -6 -5z"/>
<path d="M1312 636 c7 -8 15 -12 17 -11 5 6 -10 25 -20 25 -5 0 -4 -6 3 -14z"/>
<path d="M2030 640 c0 -5 5 -10 10 -10 6 0 10 5 10 10 0 6 -4 10 -10 10 -5 0
-10 -4 -10 -10z"/>
<path d="M4042 626 c-18 -13 -30 -26 -25 -28 4 -2 21 8 38 24 36 34 31 35 -13
4z"/>
<path d="M4090 640 c0 -5 5 -10 10 -10 6 0 10 5 10 10 0 6 -4 10 -10 10 -5 0
-10 -4 -10 -10z"/>
<path d="M4125 640 c-3 -6 1 -7 9 -4 18 7 21 14 7 14 -6 0 -13 -4 -16 -10z"/>
<path d="M4180 640 c-8 -5 -10 -10 -5 -10 6 0 17 5 25 10 8 5 11 10 5 10 -5 0
-17 -5 -25 -10z"/>
<path d="M4396 638 c2 -4 14 -5 26 -3 32 7 32 13 -1 11 -16 0 -27 -4 -25 -8z"/>
<path d="M4237 629 c7 -7 15 -10 18 -7 3 3 -2 9 -12 12 -14 6 -15 5 -6 -5z"/>
<path d="M1000 615 c-7 -9 -11 -17 -9 -20 3 -2 10 5 17 15 14 24 10 26 -8 5z"/>
<path d="M1195 620 c6 -10 4 -12 -11 -6 -15 6 -17 5 -6 -5 9 -9 15 -10 23 -2
8 8 7 13 -2 18 -8 6 -10 4 -4 -5z"/>
<path d="M1230 620 c-13 -8 -12 -10 3 -10 9 0 17 5 17 10 0 12 -1 12 -20 0z"/>
<path d="M1295 619 c-4 -6 -5 -12 -2 -15 2 -3 7 2 10 11 7 17 1 20 -8 4z"/>
<path d="M1433 623 c4 -6 4 -13 0 -16 -5 -2 -2 -2 5 -1 6 2 12 -1 12 -6 0 -10
39 -5 49 6 3 4 -1 5 -10 1 -9 -3 -27 2 -40 10 -12 9 -19 12 -16 6z"/>
<path d="M4136 621 c-4 -5 -1 -13 5 -17 8 -4 9 -3 5 4 -4 7 -3 12 3 12 5 0 12
-5 14 -10 3 -6 4 -5 3 2 -3 16 -23 22 -30 9z"/>
<path d="M4195 621 c-3 -5 0 -13 6 -17 7 -4 9 -3 5 4 -3 5 0 13 6 15 9 4 10 6
1 6 -6 1 -14 -3 -18 -8z"/>
<path d="M4275 622 c3 -3 -1 -12 -7 -21 -8 -10 -4 -9 10 3 26 23 26 23 7 23
-8 0 -13 -3 -10 -5z"/>
<path d="M710 616 c0 -2 8 -10 18 -17 15 -13 16 -12 3 4 -13 16 -21 21 -21 13z"/>
<path d="M1560 616 c0 -2 7 -7 16 -10 8 -3 12 -2 9 4 -6 10 -25 14 -25 6z"/>
<path d="M2390 609 c0 -5 -6 -7 -12 -3 -8 5 -7 0 2 -12 26 -33 40 -46 40 -35
0 5 -7 17 -16 25 -8 9 -11 16 -5 16 6 0 11 5 11 10 0 6 -4 10 -10 10 -5 0 -10
-5 -10 -11z"/>
<path d="M4070 610 c0 -5 5 -10 10 -10 6 0 10 5 10 10 0 6 -4 10 -10 10 -5 0
-10 -4 -10 -10z"/>
<path d="M4113 585 c0 -20 4 -30 8 -24 4 7 6 21 3 32 -6 33 -11 29 -11 -8z"/>
<path d="M510 601 c0 -6 4 -13 10 -16 6 -3 7 1 4 9 -7 18 -14 21 -14 7z"/>
<path d="M890 600 c0 -5 5 -10 11 -10 5 0 7 5 4 10 -3 6 -8 10 -11 10 -2 0 -4
-4 -4 -10z"/>
<path d="M956 598 c3 -5 10 -6 15 -3 13 9 11 12 -6 12 -8 0 -12 -4 -9 -9z"/>
<path d="M1090 599 c0 -5 5 -7 10 -4 6 3 10 8 10 11 0 2 -4 4 -10 4 -5 0 -10
-5 -10 -11z"/>
<path d="M1330 600 c0 -5 5 -10 10 -10 6 0 10 5 10 10 0 6 -4 10 -10 10 -5 0
-10 -4 -10 -10z"/>
<path d="M1543 588 c-12 -20 -12 -37 -1 -45 7 -4 8 -1 3 7 -6 10 -3 12 11 7
18 -7 18 -6 1 7 -18 14 -18 15 0 25 10 6 13 11 6 11 -6 0 -15 -6 -20 -12z"/>
<path d="M1585 587 c-14 -11 -15 -16 -5 -22 9 -5 11 -4 6 3 -4 7 -1 12 8 12 9
0 16 5 16 10 0 13 -3 13 -25 -3z"/>
<path d="M3980 596 c0 -2 7 -7 16 -10 8 -3 12 -2 9 4 -6 10 -25 14 -25 6z"/>
<path d="M1220 586 c0 -2 8 -10 18 -17 15 -13 16 -12 3 4 -13 16 -21 21 -21
13z"/>
<path d="M1273 583 c4 -3 1 -13 -6 -22 -11 -14 -10 -14 6 -2 20 15 22 31 5 31
-6 0 -8 -3 -5 -7z"/>
<path d="M1497 573 c5 -12 3 -14 -8 -8 -8 5 -11 4 -6 0 4 -5 14 -10 22 -11 12
-2 12 2 5 17 -13 23 -22 25 -13 2z"/>
<path d="M2580 581 c0 -5 7 -12 16 -15 14 -5 15 -4 4 9 -14 17 -20 19 -20 6z"/>
<path d="M3060 581 c0 -5 7 -12 16 -15 14 -5 15 -4 4 9 -14 17 -20 19 -20 6z"/>
<path d="M3340 581 c0 -5 7 -11 15 -15 8 -3 15 -1 15 3 0 5 -7 11 -15 15 -8 3
-15 1 -15 -3z"/>
<path d="M3953 583 c4 -3 -1 -16 -10 -27 -14 -15 -14 -18 -2 -8 9 6 18 10 20
7 3 -2 5 5 6 15 1 11 -3 20 -9 20 -6 0 -8 -3 -5 -7z"/>
<path d="M1435 571 c-3 -5 -2 -12 3 -15 5 -3 9 1 9 9 0 17 -3 19 -12 6z"/>
<path d="M1797 560 c8 -30 21 -34 15 -5 -2 14 -8 25 -12 25 -5 0 -6 -9 -3 -20z"/>
<path d="M2258 572 c6 -2 9 -8 6 -14 -5 -8 29 5 44 17 1 1 -13 2 -30 2 -18 0
-27 -2 -20 -5z"/>
<path d="M2790 571 c0 -5 5 -13 12 -17 7 -4 8 -3 4 4 -4 7 -3 12 3 12 5 0 12
-5 14 -10 3 -6 4 -5 3 2 -3 16 -36 24 -36 9z"/>
<path d="M2962 573 c-13 -5 -7 -23 9 -23 6 0 8 4 5 9 -4 5 0 12 6 14 7 3 9 5
3 5 -5 0 -16 -2 -23 -5z"/>
<path d="M2999 568 c-1 -7 -2 -25 -3 -41 -2 -15 -1 -25 2 -22 7 7 13 75 7 75
-3 0 -5 -6 -6 -12z"/>
<path d="M3150 571 c0 -6 4 -13 10 -16 6 -3 7 1 4 9 -7 18 -14 21 -14 7z"/>
<path d="M3177 560 c3 -11 7 -20 9 -20 2 0 4 9 4 20 0 11 -4 20 -9 20 -5 0 -7
-9 -4 -20z"/>
<path d="M3685 563 c-12 -28 -14 -43 -5 -48 5 -3 7 3 5 12 -1 10 4 26 13 36 8
9 10 17 5 17 -6 0 -14 -8 -18 -17z"/>
<path d="M3720 561 c0 -11 4 -22 9 -25 4 -3 6 6 3 19 -5 30 -12 33 -12 6z"/>
<path d="M3891 572 c-1 -7 -6 -10 -13 -6 -6 4 -8 3 -5 -4 8 -12 32 -10 44 3 4
4 3 5 -4 2 -6 -4 -14 -1 -16 5 -4 10 -6 10 -6 0z"/>
<path d="M4006 567 c-16 -12 -16 -13 2 -13 10 0 19 6 19 13 0 7 -1 13 -2 13
-1 0 -9 -6 -19 -13z"/>
<path d="M1710 552 c9 -19 30 -23 30 -5 0 4 -3 3 -7 0 -3 -4 -12 1 -20 11 -13
15 -13 15 -3 -6z"/>
<path d="M2237 550 c10 -11 19 -20 21 -20 1 0 -2 9 -8 20 -6 11 -15 20 -20 20
-6 0 -2 -9 7 -20z"/>
<path d="M2675 559 c-4 -6 -4 -13 -1 -16 3 -4 6 -1 6 6 0 7 5 9 10 6 6 -3 10
-1 10 4 0 14 -17 14 -25 0z"/>
<path d="M2740 560 c0 -5 5 -10 10 -10 6 0 10 5 10 10 0 6 -4 10 -10 10 -5 0
-10 -4 -10 -10z"/>
<path d="M3640 560 c0 -5 5 -10 10 -10 6 0 10 5 10 10 0 6 -4 10 -10 10 -5 0
-10 -4 -10 -10z"/>
<path d="M2106 543 c-6 -14 -5 -15 5 -6 7 7 10 15 7 18 -3 3 -9 -2 -12 -12z"/>
<path d="M3839 558 c-5 -18 -6 -38 -1 -34 7 8 12 36 6 36 -2 0 -4 -1 -5 -2z"/>
<path d="M1295 540 c3 -5 8 -10 11 -10 2 0 4 5 4 10 0 6 -5 10 -11 10 -5 0 -7
-4 -4 -10z"/>
<path d="M1586 538 c3 -4 11 -5 19 -1 21 7 19 12 -4 10 -11 0 -18 -5 -15 -9z"/>
<path d="M1638 543 c7 -3 16 -2 19 1 4 3 -2 6 -13 5 -11 0 -14 -3 -6 -6z"/>
<path d="M1670 546 c0 -2 7 -7 16 -10 8 -3 12 -2 9 4 -6 10 -25 14 -25 6z"/>
<path d="M1753 535 c0 -8 4 -12 9 -9 4 3 8 9 8 15 0 5 -4 9 -8 9 -5 0 -9 -7
-9 -15z"/>
<path d="M1836 541 c-3 -5 1 -14 8 -20 10 -9 16 -9 21 -1 4 6 3 10 -2 9 -20
-3 -27 2 -13 11 9 6 10 10 3 10 -6 0 -14 -4 -17 -9z"/>
<path d="M1997 535 c-4 -8 -3 -16 1 -19 4 -3 9 4 9 15 2 23 -3 25 -10 4z"/>
<path d="M2135 543 c3 -3 -2 -14 -11 -24 -10 -11 -12 -19 -4 -24 6 -4 9 -1 8
7 -2 7 2 12 9 11 12 -2 12 23 0 32 -4 3 -5 2 -2 -2z"/>
<path d="M2275 540 c-3 -5 -1 -10 4 -10 6 0 11 5 11 10 0 6 -2 10 -4 10 -3 0
-8 -4 -11 -10z"/>
<path d="M2351 543 c3 -20 -2 -27 -11 -13 -8 12 -9 10 -7 -7 2 -12 6 -25 10
-28 4 -3 5 -2 2 2 -3 3 2 14 11 24 10 11 12 19 4 24 -6 3 -10 3 -9 -2z"/>
<path d="M2499 548 c-9 -31 -6 -37 14 -27 32 17 35 22 8 14 -16 -5 -21 -4 -17
4 4 6 5 11 2 11 -3 0 -6 -1 -7 -2z"/>
<path d="M2599 548 c-6 -22 -5 -38 3 -38 6 0 7 7 4 16 -5 12 -2 15 9 10 9 -3
13 -2 10 4 -5 9 -24 14 -26 8z"/>
<path d="M2710 540 c0 -5 5 -10 10 -10 6 0 10 5 10 10 0 6 -4 10 -10 10 -5 0
-10 -4 -10 -10z"/>
<path d="M3079 548 c-6 -22 -5 -38 3 -38 6 0 7 7 4 16 -5 12 -2 15 9 10 9 -3
13 -2 10 4 -5 9 -24 14 -26 8z"/>
<path d="M3230 540 c0 -5 5 -10 11 -10 5 0 7 5 4 10 -3 6 -8 10 -11 10 -2 0
-4 -4 -4 -10z"/>
<path d="M3374 542 c3 -6 -2 -15 -11 -21 -10 -6 -13 -11 -7 -11 20 0 37 27 23
36 -7 4 -9 3 -5 -4z"/>
<path d="M3430 541 c0 -6 4 -12 8 -15 5 -3 9 1 9 9 0 8 -4 15 -9 15 -4 0 -8
-4 -8 -9z"/>
<path d="M3797 528 c19 -21 31 -24 14 -4 -9 11 -9 15 1 19 7 3 3 4 -9 4 -21
-1 -21 -2 -6 -19z"/>
<path d="M1955 530 c-4 -6 -10 -8 -14 -6 -4 3 -13 0 -21 -5 -11 -7 -10 -8 8
-6 20 3 56 27 40 27 -4 0 -10 -5 -13 -10z"/>
<path d="M2395 527 c11 -6 22 -12 25 -12 3 0 12 -4 20 -10 13 -8 13 -7 1 8 -7
9 -17 15 -21 12 -5 -3 -11 -1 -15 5 -3 5 -12 10 -18 10 -7 0 -3 -6 8 -13z"/>
<path d="M2833 520 c1 -21 10 -18 13 5 1 8 -2 15 -6 15 -5 0 -8 -9 -7 -20z"/>
<path d="M3149 523 c-13 -16 -12 -17 4 -4 9 7 17 15 17 17 0 8 -8 3 -21 -13z"/>
<path d="M3310 525 c0 -8 2 -15 4 -15 2 0 6 7 10 15 3 8 1 15 -4 15 -6 0 -10
-7 -10 -15z"/>
<path d="M2056 518 c3 -4 11 -5 19 -1 21 7 19 12 -4 10 -11 0 -18 -5 -15 -9z"/>
<path d="M2299 528 c-5 -18 -6 -38 -1 -34 7 8 12 36 6 36 -2 0 -4 -1 -5 -2z"/>
<path d="M2636 513 c-6 -14 -5 -15 5 -6 7 7 10 15 7 18 -3 3 -9 -2 -12 -12z"/>
<path d="M2660 526 c0 -2 8 -10 18 -17 15 -13 16 -12 3 4 -13 16 -21 21 -21
13z"/>
<path d="M2759 513 c-13 -16 -12 -17 4 -4 9 7 17 15 17 17 0 8 -8 3 -21 -13z"/>
<path d="M3213 515 c0 -8 4 -12 9 -9 5 3 6 10 3 15 -9 13 -12 11 -12 -6z"/>
<path d="M3395 521 c-3 -5 -2 -12 3 -15 5 -3 9 1 9 9 0 17 -3 19 -12 6z"/>
<path d="M3956 522 c-3 -5 1 -9 9 -9 8 0 12 4 9 9 -3 4 -7 8 -9 8 -2 0 -6 -4
-9 -8z"/>
<path d="M2193 505 c0 -8 4 -12 9 -9 5 3 6 10 3 15 -9 13 -12 11 -12 -6z"/>
<path d="M3653 505 c0 -8 4 -12 9 -9 5 3 6 10 3 15 -9 13 -12 11 -12 -6z"/>
<path d="M2226 498 c3 -5 10 -6 15 -3 13 9 11 12 -6 12 -8 0 -12 -4 -9 -9z"/>
<path d="M2546 498 c3 -5 10 -6 15 -3 13 9 11 12 -6 12 -8 0 -12 -4 -9 -9z"/>
<path d="M2586 478 c3 -5 10 -6 15 -3 13 9 11 12 -6 12 -8 0 -12 -4 -9 -9z"/>
<path d="M2635 479 c-3 -4 2 -6 10 -5 21 3 28 13 10 13 -9 0 -18 -4 -20 -8z"/>
<path d="M3070 479 c0 -5 5 -7 10 -4 6 3 10 8 10 11 0 2 -4 4 -10 4 -5 0 -10
-5 -10 -11z"/>
<path d="M3230 446 c0 -2 7 -7 16 -10 8 -3 12 -2 9 4 -6 10 -25 14 -25 6z"/>
</g>
</svg>
