<?xml version="1.0" standalone="no"?>
<!DOCTYPE svg PUBLIC "-//W3C//DTD SVG 20010904//EN"
 "http://www.w3.org/TR/2001/REC-SVG-20010904/DTD/svg10.dtd">
<svg version="1.0" xmlns="http://www.w3.org/2000/svg"
 width="1947.000000pt" height="1947.000000pt" viewBox="0 0 1947.000000 1947.000000"
 preserveAspectRatio="xMidYMid meet">
<metadata>
Created by potrace 1.14, written by Peter Selinger 2001-2017
</metadata>
<g transform="translate(0.000000,1947.000000) scale(0.100000,-0.100000)"
fill="#000000" stroke="none">
<path d="M2378 19105 c-2 -2 -55 -5 -118 -9 -63 -3 -126 -8 -140 -11 -14 -2
-47 -6 -74 -9 -285 -32 -625 -134 -871 -261 -86 -44 -222 -126 -259 -155 -6
-5 -40 -33 -76 -61 -67 -53 -237 -221 -278 -274 -119 -156 -167 -233 -242
-389 -106 -220 -189 -503 -215 -731 -3 -27 -8 -61 -10 -75 -13 -75 -20 -210
-20 -420 0 -280 12 -446 50 -688 4 -23 8 -52 10 -65 3 -20 18 -111 30 -182 25
-139 95 -430 151 -629 112 -398 337 -1013 495 -1354 16 -35 29 -65 29 -67 0
-2 21 -47 46 -102 25 -54 60 -127 76 -163 74 -160 365 -732 388 -765 4 -5 27
-46 50 -90 24 -44 52 -95 63 -115 11 -19 48 -85 83 -146 34 -61 73 -129 86
-150 14 -22 36 -59 50 -84 14 -25 67 -114 119 -198 52 -84 101 -165 110 -180
54 -91 233 -369 362 -562 144 -216 436 -640 441 -640 1 0 35 42 76 93 41 50
77 94 80 97 4 4 88 105 171 205 22 26 96 114 123 145 11 14 97 117 191 230 93
113 172 207 175 210 3 3 20 24 39 48 l33 42 -118 213 c-118 211 -330 625 -394
767 -18 41 -46 102 -60 135 -15 33 -44 98 -64 145 -21 47 -41 94 -46 105 -59
132 -190 493 -257 705 -91 292 -184 708 -208 935 -4 33 -8 70 -10 83 -17 110
-24 485 -11 588 23 175 29 219 47 303 74 341 250 659 467 841 29 25 58 50 65
56 21 18 149 100 208 132 155 85 427 173 609 197 30 4 64 9 75 11 128 25 662
25 795 -1 10 -2 46 -6 79 -10 33 -3 70 -8 83 -10 13 -3 39 -7 58 -10 67 -8
386 -74 490 -100 533 -134 1148 -363 1730 -642 287 -138 599 -299 745 -383 17
-10 55 -31 85 -47 69 -38 105 -58 203 -117 43 -25 81 -46 83 -46 3 0 17 -8 32
-19 15 -10 70 -44 122 -75 52 -32 104 -63 115 -69 217 -132 648 -411 894 -581
160 -110 504 -357 556 -399 26 -21 270 -204 296 -222 15 -11 54 -41 86 -66
l59 -47 28 82 c121 344 363 628 691 810 63 35 62 34 43 49 -9 6 -126 100 -259
207 -134 108 -264 211 -289 230 -25 19 -47 37 -50 40 -32 34 -865 652 -1070
793 -14 9 -83 58 -155 108 -135 94 -570 386 -710 475 -44 28 -118 76 -165 106
-392 251 -967 586 -1425 830 -116 62 -721 363 -839 418 -499 230 -1053 450
-1481 587 -60 19 -130 42 -155 50 -93 31 -472 137 -529 148 -9 2 -43 10 -76
19 -33 8 -76 18 -95 21 -19 3 -51 10 -70 15 -19 5 -48 12 -65 15 -31 5 -63 11
-105 20 -41 8 -312 53 -357 59 -24 4 -60 8 -80 11 -21 2 -56 6 -78 9 -22 3
-69 8 -105 11 -36 3 -92 8 -125 11 -58 6 -512 13 -517 9z"/>
<path d="M16868 19085 c-2 -1 -57 -5 -123 -9 -147 -7 -218 -13 -315 -26 -41
-5 -97 -12 -125 -15 -27 -3 -75 -10 -105 -16 -30 -5 -73 -12 -95 -15 -22 -3
-116 -21 -210 -40 -93 -19 -181 -37 -195 -40 -14 -3 -41 -9 -60 -14 -19 -5
-46 -11 -60 -14 -101 -19 -516 -137 -760 -217 -169 -56 -567 -197 -615 -219
-11 -5 -78 -32 -149 -60 -131 -51 -358 -146 -431 -180 -22 -10 -90 -41 -152
-68 -61 -28 -149 -67 -195 -88 -102 -47 -719 -356 -843 -422 -49 -27 -130 -70
-180 -97 -49 -26 -94 -51 -100 -55 -5 -4 -46 -27 -90 -50 -194 -105 -738 -427
-982 -581 -425 -269 -516 -330 -507 -338 5 -4 59 -43 119 -86 199 -143 529
-397 852 -657 68 -54 127 -98 131 -98 5 0 46 21 93 46 241 131 651 328 949
456 235 101 649 262 730 284 8 2 94 29 190 59 164 52 333 100 390 111 14 3 39
9 55 14 37 11 249 58 290 64 17 2 53 9 80 14 28 6 70 13 95 17 25 3 56 8 70
10 14 3 50 7 80 10 30 3 62 7 70 10 98 26 700 27 846 1 11 -2 42 -7 69 -10 83
-12 292 -65 378 -97 481 -177 796 -517 936 -1010 16 -57 33 -124 37 -149 4
-25 8 -47 9 -50 3 -9 16 -95 20 -130 22 -173 22 -496 -1 -670 -17 -133 -24
-188 -28 -205 -2 -11 -7 -42 -10 -69 -4 -27 -9 -52 -11 -55 -1 -3 -6 -24 -9
-46 -27 -171 -178 -719 -235 -850 -5 -11 -24 -60 -41 -110 -68 -187 -150 -387
-272 -655 -91 -200 -323 -645 -485 -930 -132 -232 -556 -903 -635 -1005 -4 -5
-78 -109 -164 -230 -189 -266 -467 -635 -637 -845 -94 -116 -250 -306 -319
-388 -49 -57 -88 -107 -88 -112 0 -5 15 -12 32 -16 108 -23 356 -155 473 -251
144 -119 289 -290 372 -441 l40 -72 64 72 c35 40 66 75 69 78 4 3 77 88 164
190 87 102 170 199 185 215 14 17 42 50 62 75 20 25 45 55 55 67 25 28 28 32
180 218 165 202 402 503 524 665 52 69 97 127 100 130 3 3 17 21 30 40 14 19
28 40 32 45 5 6 16 20 26 32 9 12 25 32 34 45 9 13 39 53 67 90 56 75 283 393
385 538 135 194 457 682 595 905 79 127 151 241 160 255 8 14 21 34 27 46 24
45 128 221 145 246 11 15 19 29 19 32 0 2 23 44 51 93 176 304 444 817 574
1098 139 301 272 614 360 845 26 69 51 134 55 145 53 122 247 748 280 900 4
22 11 49 13 60 30 123 47 196 51 227 3 21 10 57 15 80 13 55 17 80 36 208 9
58 17 116 19 130 4 21 9 70 22 190 22 204 21 693 -1 780 -2 8 -6 40 -10 70
-16 154 -59 342 -120 525 -69 209 -204 449 -352 627 -73 88 -216 225 -283 271
-25 17 -67 48 -95 69 -27 21 -54 38 -59 38 -5 0 -17 6 -25 14 -27 25 -251 133
-351 170 -216 80 -444 132 -705 161 -27 3 -70 8 -95 11 -50 5 -477 14 -482 9z"/>
<path d="M7794 14484 c-76 -65 -141 -120 -144 -123 -3 -4 -21 -19 -40 -35 -49
-40 -337 -294 -539 -475 -40 -36 -80 -65 -89 -63 -8 2 -54 16 -102 32 -47 15
-102 31 -121 35 -280 53 -502 54 -734 4 -564 -124 -1007 -523 -1174 -1059 -44
-140 -56 -228 -56 -410 0 -190 4 -225 36 -357 137 -563 603 -1004 1199 -1134
130 -28 192 -34 355 -34 161 1 216 6 346 35 552 120 992 503 1164 1012 38 116
42 130 69 308 7 41 8 246 2 305 -12 116 -50 277 -90 375 l-24 59 161 138 c89
76 167 143 172 149 6 5 41 37 80 70 38 32 75 64 81 70 6 5 31 26 54 45 23 18
50 41 59 49 9 9 54 47 101 85 47 39 94 77 105 87 57 47 206 166 235 188 82 61
86 47 -46 140 -65 46 -146 102 -179 125 -104 73 -734 495 -738 495 -2 0 -66
-52 -143 -116z"/>
<path d="M12325 14483 c-34 -4 -188 -30 -224 -37 -73 -16 -239 -74 -326 -115
-442 -209 -744 -589 -845 -1061 -26 -121 -35 -368 -19 -485 82 -576 499 -1062
1072 -1250 56 -18 116 -35 132 -38 17 -3 68 -13 115 -21 231 -42 558 -18 784
59 l71 24 79 -82 c240 -249 398 -419 546 -587 120 -138 128 -147 205 -240 38
-47 84 -102 101 -122 l33 -37 77 102 c43 56 81 104 84 107 8 8 171 227 241
325 72 100 207 303 233 350 9 17 28 49 42 73 l25 43 -33 38 c-18 20 -55 63
-83 96 -27 32 -63 72 -80 90 -16 17 -45 49 -64 70 -30 35 -164 181 -274 299
-22 22 -88 92 -148 154 -60 62 -109 117 -109 124 0 6 12 41 26 76 25 63 66
210 78 282 25 150 23 425 -4 521 -5 18 -12 50 -15 71 -11 70 -55 191 -114 313
-163 331 -433 584 -786 735 -62 27 -213 77 -252 84 -15 2 -55 10 -88 16 -33 7
-71 14 -85 16 -34 6 -358 12 -395 7z"/>
<path d="M4433 11136 c-4 -8 -34 -42 -65 -77 -31 -35 -66 -75 -78 -89 -12 -14
-36 -41 -53 -60 -39 -42 -198 -226 -247 -285 -19 -23 -115 -138 -214 -256
-224 -269 -198 -237 -291 -354 -44 -55 -82 -102 -85 -105 -3 -3 -30 -36 -60
-75 -30 -38 -60 -77 -67 -85 -66 -82 -236 -304 -379 -495 -491 -653 -969
-1366 -1332 -1985 -46 -80 -93 -157 -103 -172 -11 -15 -19 -29 -19 -31 0 -2
-34 -64 -75 -136 -71 -125 -105 -188 -232 -426 -73 -137 -237 -471 -316 -640
-58 -126 -75 -164 -122 -270 -11 -25 -54 -126 -85 -200 -4 -11 -15 -36 -23
-55 -8 -19 -40 -102 -72 -185 -31 -82 -61 -159 -66 -170 -21 -47 -138 -402
-193 -585 -56 -188 -136 -518 -166 -685 -5 -33 -12 -71 -15 -85 -51 -292 -70
-510 -69 -820 0 -203 3 -257 20 -410 5 -43 18 -125 29 -180 3 -14 8 -41 11
-60 24 -136 111 -393 184 -540 107 -216 198 -341 384 -525 227 -224 494 -383
821 -489 82 -26 184 -54 220 -61 11 -2 65 -12 120 -23 90 -18 135 -25 230 -37
207 -26 767 -26 915 0 14 3 52 7 85 9 99 8 210 23 305 41 14 2 41 7 60 9 19 3
49 8 65 11 17 3 75 14 130 25 55 11 152 31 215 45 63 15 126 28 140 31 14 3
34 8 45 11 11 4 25 8 30 9 25 5 185 47 225 59 25 7 77 22 115 34 789 229 1784
642 2630 1091 218 115 374 200 428 232 26 15 50 28 52 28 8 0 471 268 645 373
91 54 179 107 195 117 123 71 625 393 625 400 0 3 -35 30 -78 60 -76 54 -327
238 -360 265 -9 7 -125 98 -257 202 -132 103 -247 193 -255 200 -155 127 -149
123 -178 110 -15 -6 -58 -29 -97 -51 -243 -134 -855 -420 -1149 -538 -240 -95
-649 -240 -761 -268 -16 -5 -70 -20 -120 -35 -124 -37 -287 -78 -430 -109
-102 -21 -171 -34 -335 -61 -14 -2 -45 -7 -70 -10 -109 -13 -136 -17 -159 -20
-53 -9 -273 -19 -406 -18 -222 0 -328 10 -545 50 -108 19 -302 80 -397 124
-34 16 -64 29 -67 29 -2 0 -37 19 -78 42 -239 135 -449 355 -568 595 -76 154
-145 365 -163 498 -3 22 -11 74 -18 115 -14 84 -18 511 -7 630 11 102 25 216
33 265 10 53 25 139 31 170 10 55 45 209 66 290 11 44 21 85 22 90 4 16 36
123 63 210 88 282 233 663 348 910 18 39 52 113 76 165 53 118 228 463 299
590 29 52 66 120 83 150 295 540 840 1356 1298 1943 22 29 51 66 64 82 64 83
229 291 235 295 3 3 30 36 60 75 30 38 66 81 79 95 13 14 35 41 50 60 14 19
29 37 32 40 3 3 29 33 57 67 l52 62 -68 22 c-89 29 -222 91 -278 128 -25 17
-47 31 -50 31 -15 0 -164 121 -233 190 -108 108 -253 303 -284 383 -8 21 -23
22 -34 3z"/>
<path d="M5365 8893 c-49 -64 -107 -139 -128 -167 -21 -28 -45 -59 -52 -68
-34 -41 -244 -339 -284 -403 -24 -39 -54 -86 -67 -105 -12 -19 -36 -59 -52
-89 l-30 -54 46 -50 c91 -98 118 -126 212 -228 52 -57 127 -137 165 -179 39
-41 100 -106 135 -144 94 -100 136 -144 193 -203 l50 -52 -31 -83 c-101 -273
-122 -520 -67 -818 25 -137 113 -349 202 -488 120 -189 297 -364 491 -486 86
-54 313 -159 372 -171 8 -2 42 -11 75 -19 33 -9 76 -19 95 -22 19 -3 37 -7 41
-9 28 -18 367 -26 489 -13 166 19 350 74 515 153 307 148 548 378 707 676 30
56 96 212 102 244 2 6 8 30 15 55 7 25 15 56 17 70 3 14 6 30 9 37 19 54 27
354 13 458 -29 214 -113 438 -231 617 -75 114 -95 138 -218 259 -233 230 -535
381 -869 435 -155 25 -410 22 -565 -6 -70 -14 -201 -47 -230 -60 -78 -33 -79
-33 -140 33 -32 34 -108 114 -169 178 -61 64 -149 158 -196 210 -47 51 -110
121 -140 154 -30 33 -77 87 -105 120 -27 33 -66 77 -85 99 -53 59 -53 58 -90
106 -19 25 -44 56 -57 70 -12 14 -28 33 -35 42 -12 15 -23 4 -103 -99z"/>
<path d="M16735 8907 c-57 -72 -287 -350 -295 -357 -3 -3 -107 -126 -230 -275
-123 -148 -243 -293 -267 -322 l-44 -52 37 -68 c20 -37 40 -72 44 -78 4 -5 22
-37 40 -70 18 -33 43 -78 55 -100 413 -750 742 -1566 883 -2190 32 -141 59
-281 67 -355 3 -25 10 -72 15 -105 37 -249 33 -648 -11 -870 -5 -27 -11 -60
-14 -73 -34 -182 -132 -417 -243 -587 -108 -165 -288 -338 -452 -433 -30 -18
-62 -37 -70 -42 -104 -61 -361 -153 -490 -175 -19 -3 -42 -8 -50 -10 -36 -10
-109 -21 -200 -30 -36 -4 -78 -9 -95 -11 -33 -6 -377 -6 -465 0 -62 3 -192 16
-230 21 -14 2 -61 9 -105 15 -44 6 -93 13 -110 15 -45 8 -187 34 -210 39 -11
3 -53 12 -93 20 -216 47 -587 153 -832 240 -161 56 -439 161 -507 191 -21 9
-47 21 -58 25 -539 225 -1236 580 -1755 894 -47 28 -93 56 -102 61 -50 28
-170 103 -221 137 -32 21 -60 38 -63 38 -24 0 -951 627 -1136 769 -26 20 -63
47 -83 61 -20 14 -51 36 -69 50 -18 14 -46 35 -62 47 -16 12 -70 52 -120 90
-160 121 -154 117 -154 93 0 -51 -127 -325 -182 -395 -5 -5 -30 -39 -57 -75
-118 -157 -314 -325 -478 -410 -24 -12 -43 -26 -43 -30 0 -11 615 -500 840
-668 25 -18 97 -72 161 -120 157 -118 464 -340 644 -467 47 -33 113 -80 148
-104 34 -25 197 -135 362 -246 696 -466 1283 -820 2015 -1215 378 -204 1144
-565 1485 -700 44 -17 94 -38 110 -45 113 -53 663 -248 940 -333 195 -61 511
-146 585 -158 19 -3 38 -8 42 -11 8 -4 25 -8 82 -19 16 -2 32 -6 35 -8 3 -2
23 -7 44 -10 21 -3 71 -13 110 -21 88 -17 191 -36 232 -41 17 -2 41 -6 55 -9
14 -3 45 -7 70 -10 25 -3 56 -8 70 -10 14 -2 54 -7 90 -10 35 -3 82 -8 105
-10 256 -27 743 -27 895 -1 14 3 50 7 81 11 31 3 67 8 80 11 13 2 40 7 59 10
115 18 337 76 440 115 317 119 542 259 745 463 181 182 328 408 426 653 37 94
97 276 105 318 3 17 11 55 19 85 13 54 29 136 40 215 4 22 8 50 10 63 28 168
27 700 0 942 -3 19 -7 55 -10 80 -2 25 -7 62 -10 82 -3 21 -8 51 -10 68 -2 17
-6 43 -9 58 -3 15 -7 43 -10 62 -13 87 -70 356 -112 523 -148 592 -398 1270
-709 1922 -78 164 -257 522 -290 580 -12 22 -40 74 -62 115 -114 213 -290 524
-392 692 -9 14 -29 48 -45 75 -86 143 -315 507 -386 613 -6 8 -39 58 -73 110
-147 222 -467 684 -495 712 -4 4 -29 -21 -57 -55z"/>
<path d="M13008 8655 c-2 -1 -34 -5 -73 -8 -365 -32 -747 -214 -1001 -479
-227 -237 -364 -515 -411 -834 -9 -67 -10 -327 0 -389 15 -96 18 -110 33 -165
8 -30 19 -68 24 -85 4 -16 16 -51 26 -77 10 -26 16 -49 14 -51 -3 -2 -55 -46
-115 -98 -61 -52 -133 -112 -159 -134 -27 -22 -54 -45 -60 -50 -8 -8 -487
-400 -541 -443 -145 -115 -241 -195 -243 -201 -3 -8 12 -19 133 -103 307 -212
907 -598 930 -598 7 0 190 143 205 159 3 3 28 24 55 46 28 22 61 49 75 61 270
231 412 355 543 474 21 19 44 38 51 42 7 4 55 -7 107 -23 52 -17 103 -33 114
-35 71 -14 125 -24 155 -30 74 -13 375 -12 465 2 260 39 491 128 695 268 95
64 125 90 231 196 320 320 471 748 425 1200 -59 568 -480 1077 -1051 1268 -97
32 -245 66 -336 77 -55 7 -286 15 -291 10z"/>
</g>
</svg>
